<svg width="32" height="32" viewBox="0 0 32 32" fill="none" xmlns="http://www.w3.org/2000/svg">
  <rect width="32" height="32" rx="16" fill="#24292E"/>
  <path d="M16 6C10.477 6 6 10.477 6 16C6 20.237 8.636 23.837 12.354 25.142C12.904 25.242 13.1 24.913 13.1 24.628C13.1 24.373 13.091 23.703 13.086 22.837C10.267 23.496 9.616 21.472 9.616 21.472C9.121 20.346 8.394 20.019 8.394 20.019C7.368 19.344 8.479 19.358 8.479 19.358C9.622 19.44 10.221 20.481 10.221 20.481C11.23 22.222 12.855 21.722 13.12 21.446C13.221 20.731 13.532 20.231 13.88 19.962C11.657 19.689 9.321 18.724 9.321 14.966C9.321 13.9 9.732 13.031 10.243 12.351C10.128 12.078 9.717 10.946 10.351 9.399C10.351 9.399 11.3 9.109 13.076 10.312C13.989 10.074 14.963 9.955 15.93 9.951C16.897 9.955 17.871 10.074 18.785 10.312C20.559 9.109 21.507 9.399 21.507 9.399C22.142 10.946 21.731 12.078 21.616 12.351C22.128 13.031 22.537 13.9 22.537 14.966C22.537 18.732 20.197 19.686 17.968 19.956C20.368 21.826 20.368 22.116 20.368 24.628C20.368 24.913 20.564 25.246 21.122 25.141C24.836 23.832 27.468 20.235 27.468 16C27.468 10.477 22.991 6 17.468 6H16Z" fill="white"/>
</svg> 