<?xml version="1.0" encoding="UTF-8"?>
<svg version="1.1" xmlns="http://www.w3.org/2000/svg" width="1024" height="1024">
<path d="M0 0 C9.63449094 7.38699391 16.17382982 18.29885922 18.03125 30.32421875 C19.834518 48.07066578 12.97901303 62.0081763 2.3671875 75.91796875 C-0.30034209 78.25143388 -2.2207283 78.56980622 -5.72265625 78.74609375 C-7.59765625 77.30859375 -7.59765625 77.30859375 -8.72265625 75.74609375 C-7.68964951 72.30273796 -6.46491386 69.16253339 -4.78515625 65.99609375 C0.68292379 55.05993367 2.5228193 42.4960689 -0.5546875 30.50390625 C-1.48822309 28.14734076 -2.50204128 25.96458373 -3.72265625 23.74609375 C-4.06167969 23.02164062 -4.40070313 22.2971875 -4.75 21.55078125 C-6.04707475 19.14416062 -7.22001939 18.8283151 -9.72265625 17.74609375 C-11.47269559 16.73033665 -13.20805744 15.69238622 -14.94140625 14.6484375 C-34.08273624 4.9518427 -67.44407409 17.86324001 -85.72265625 23.74609375 C-92.82823697 26.15568228 -99.79506443 28.86825665 -106.72265625 31.74609375 C-107.4496875 32.04418945 -108.17671875 32.34228516 -108.92578125 32.64941406 C-130.50842601 41.5798241 -151.37691954 52.66710144 -170.72265625 65.74609375 C-171.80764404 66.47626709 -171.80764404 66.47626709 -172.91455078 67.22119141 C-186.86504186 76.67413635 -199.99855436 87.09157057 -212.34765625 98.55859375 C-214.42902389 100.47564289 -216.55524502 102.30326498 -218.72265625 104.12109375 C-226.95164381 111.34654624 -233.81291661 119.55019581 -240.16015625 128.43359375 C-240.65612305 129.12179199 -241.15208984 129.80999023 -241.66308594 130.51904297 C-248.52262691 140.35417321 -252.90393472 151.08570881 -251.26171875 163.23046875 C-248.63112968 175.50655106 -241.7627614 182.73072914 -231.72265625 189.74609375 C-224.33483244 194.34128237 -216.75812593 198.4138255 -208.72265625 201.74609375 C-208.06265625 202.07609375 -207.40265625 202.40609375 -206.72265625 202.74609375 C-205.77003906 203.21660156 -204.81742187 203.68710937 -203.8359375 204.171875 C-127.61309236 241.93874686 -127.61309236 241.93874686 -109.72265625 275.74609375 C-109.36300781 276.84695313 -109.00335938 277.9478125 -108.6328125 279.08203125 C-108.33246094 279.96117187 -108.03210938 280.8403125 -107.72265625 281.74609375 C-105.69022077 282.71486432 -105.69022077 282.71486432 -103.72265625 282.74609375 C-104.38265625 283.40609375 -105.04265625 284.06609375 -105.72265625 284.74609375 C-101.69373413 284.74609375 -100.53640991 284.36515302 -97.13671875 282.54296875 C-88.58552115 278.09746828 -79.71004491 274.37588682 -70.87011719 270.54589844 C-67.8447394 269.2347226 -64.82265347 267.91619546 -61.80175781 266.59472656 C-57.3438367 264.64588471 -52.87990507 262.71134319 -48.41241455 260.7845459 C-46.63030628 260.01369683 -44.84995998 259.23876048 -43.07147217 258.45959473 C-40.54340308 257.35331611 -38.00899334 256.26294542 -35.47265625 255.17578125 C-34.34883041 254.67807724 -34.34883041 254.67807724 -33.20230103 254.1703186 C-27.9991613 251.96604965 -23.36274594 251.15363482 -17.72265625 250.74609375 C-16.03515625 253.43359375 -16.03515625 253.43359375 -14.72265625 256.74609375 C-16.58997374 261.08587017 -18.74107969 262.65787493 -22.98046875 264.55078125 C-24.06432861 265.04400879 -25.14818848 265.53723633 -26.26489258 266.04541016 C-27.44720459 266.56538574 -28.6295166 267.08536133 -29.84765625 267.62109375 C-31.09400222 268.18262135 -32.33967589 268.74564327 -33.5847168 269.31005859 C-36.23997083 270.51095 -38.89888507 271.70314741 -41.56103516 272.88867188 C-47.86678917 275.6984878 -54.14924706 278.5597174 -60.43380737 281.41653442 C-62.5275474 282.36763735 -64.62222601 283.31664829 -66.71704102 284.26538086 C-78.46594054 289.59303854 -90.12003831 295.1062544 -101.72265625 300.74609375 C-101.69945312 301.54789063 -101.67625 302.3496875 -101.65234375 303.17578125 C-101.07955031 339.26176793 -113.69973869 372.53852306 -135.49755859 401.13574219 C-136.73107815 402.75716407 -137.94090765 404.39431625 -139.1484375 406.03515625 C-152.52441435 424.03324048 -168.93269425 441.14200517 -186.72265625 454.74609375 C-188.03082582 455.78144381 -189.33804196 456.81799918 -190.64453125 457.85546875 C-199.61759342 464.923348 -208.71746097 471.23828784 -218.72265625 476.74609375 C-219.52751465 477.19227051 -220.33237305 477.63844727 -221.16162109 478.09814453 C-244.97837925 491.20562347 -274.78138367 504.28081475 -302.67578125 497.9921875 C-308.47466181 496.27275199 -313.65591403 494.04536776 -318.72265625 490.74609375 C-318.72265625 490.08609375 -318.72265625 489.42609375 -318.72265625 488.74609375 C-319.38265625 488.74609375 -320.04265625 488.74609375 -320.72265625 488.74609375 C-321.9765625 487.13671875 -321.9765625 487.13671875 -323.28515625 484.99609375 C-323.71957031 484.3 -324.15398437 483.60390625 -324.6015625 482.88671875 C-328.66107312 475.13545805 -327.41186177 465.16311432 -325.09765625 457.05859375 C-317.16341652 434.05480842 -295.82890047 414.26992389 -277.72265625 398.74609375 C-276.67934245 397.83893836 -275.63640246 396.93135294 -274.59375 396.0234375 C-267.11099052 389.52999285 -259.47220525 383.29428007 -251.63574219 377.23388672 C-249.59521231 375.64698153 -247.56847186 374.04353393 -245.54296875 372.4375 C-234.56477058 363.76195049 -223.29056162 355.61581965 -211.72265625 347.74609375 C-210.66804199 347.0284082 -209.61342773 346.31072266 -208.52685547 345.57128906 C-195.02547573 336.40390181 -181.42372885 327.47918255 -167.31689453 319.26171875 C-164.44270391 317.58253793 -161.58067684 315.88358647 -158.71875 314.18359375 C-149.7120998 308.85388964 -140.70746323 303.56184542 -131.34765625 298.87109375 C-130.36684082 298.37947754 -130.36684082 298.37947754 -129.36621094 297.87792969 C-124.99535178 295.74609375 -124.99535178 295.74609375 -122.72265625 295.74609375 C-125.87747336 285.48203393 -125.87747336 285.48203393 -131.72265625 276.74609375 C-132.21765625 275.92109375 -132.71265625 275.09609375 -133.22265625 274.24609375 C-146.26420686 254.75438994 -171.36826429 242.86179654 -191.66015625 232.55859375 C-192.62655029 232.06415771 -193.59294434 231.56972168 -194.58862305 231.06030273 C-195.48750244 230.61243408 -196.38638184 230.16456543 -197.3125 229.703125 C-198.11550537 229.3006958 -198.91851074 228.8982666 -199.74584961 228.48364258 C-200.3981958 228.24025146 -201.05054199 227.99686035 -201.72265625 227.74609375 C-202.38265625 228.07609375 -203.04265625 228.40609375 -203.72265625 228.74609375 C-203.72265625 227.75609375 -203.72265625 226.76609375 -203.72265625 225.74609375 C-204.91890625 225.39546875 -206.11515625 225.04484375 -207.34765625 224.68359375 C-212.52450521 222.99100358 -217.23797311 220.56436521 -222.02392578 217.99584961 C-223.56178283 217.18931858 -225.13999346 216.46070909 -226.72265625 215.74609375 C-227.38265625 216.07609375 -228.04265625 216.40609375 -228.72265625 216.74609375 C-228.72265625 215.75609375 -228.72265625 214.76609375 -228.72265625 213.74609375 C-229.44066406 213.48054687 -230.15867187 213.215 -230.8984375 212.94140625 C-246.57722496 206.3055709 -262.1861977 192.7816444 -268.7578125 176.83203125 C-270.70076721 170.61772268 -271.95218787 164.20859381 -272.72265625 157.74609375 C-272.39265625 157.41609375 -272.06265625 157.08609375 -271.72265625 156.74609375 C-271.4457142 155.00015472 -271.20208242 153.24890967 -270.97265625 151.49609375 C-268.06771023 133.81563093 -258.23882062 119.9937094 -246.72265625 106.74609375 C-246.0265625 105.93914062 -245.33046875 105.1321875 -244.61328125 104.30078125 C-235.92811744 94.44280335 -226.74513992 85.06563964 -216.4375 76.90234375 C-213.64241407 74.68236183 -210.93636231 72.3770999 -208.22265625 70.05859375 C-188.33074628 53.52040348 -166.55874482 39.83271953 -143.72265625 27.74609375 C-142.9028125 27.31087402 -142.08296875 26.8756543 -141.23828125 26.42724609 C-105.17976823 7.44872191 -39.37449714 -25.59023234 0 0 Z M-127.4140625 312.203125 C-128.34919678 312.73268799 -129.28433105 313.26225098 -130.24780273 313.80786133 C-131.75129272 314.67447388 -131.75129272 314.67447388 -133.28515625 315.55859375 C-134.32293213 316.15244873 -135.36070801 316.74630371 -136.42993164 317.3581543 C-153.05454513 326.91471884 -169.10190935 337.16762837 -184.99169922 347.90234375 C-187.34685482 349.49237907 -189.70748018 351.07375874 -192.0703125 352.65234375 C-201.52741877 359.01411813 -210.57548525 365.87293795 -219.60546875 372.82421875 C-223.41402888 375.75475329 -227.25699419 378.63131223 -231.12695312 381.47998047 C-239.15807245 387.40382641 -246.72255641 393.75457777 -254.18212891 400.38037109 C-256.07728107 402.06047905 -257.99366603 403.71540426 -259.91015625 405.37109375 C-272.75523079 416.65918956 -285.23067509 428.17953936 -295.72265625 441.74609375 C-296.44710937 442.67679688 -297.1715625 443.6075 -297.91796875 444.56640625 C-303.8557005 452.43225754 -309.18553727 460.50485122 -308.72265625 470.74609375 C-307.43825272 474.8259638 -306.46845431 476.27591671 -302.84765625 478.55859375 C-284.83438714 485.40363601 -262.61021366 478.14292749 -245.63964844 470.85107422 C-240.89164949 468.6838091 -236.29027474 466.26854268 -231.72265625 463.74609375 C-230.656521 463.15755615 -230.656521 463.15755615 -229.56884766 462.55712891 C-220.06998621 457.25470392 -211.24290911 451.52777114 -202.72265625 444.74609375 C-201.86285156 444.07835937 -201.00304687 443.410625 -200.1171875 442.72265625 C-194.89765866 438.62795611 -189.93107748 434.31284119 -185.046875 429.82421875 C-182.72265625 427.74609375 -182.72265625 427.74609375 -179.9296875 425.60546875 C-179.20136719 424.991875 -178.47304688 424.37828125 -177.72265625 423.74609375 C-177.72265625 423.08609375 -177.72265625 422.42609375 -177.72265625 421.74609375 C-176.73265625 421.41609375 -175.74265625 421.08609375 -174.72265625 420.74609375 C-173.17649506 419.25904323 -173.17649506 419.25904323 -171.66015625 417.37109375 C-168.90104673 414.09933131 -166.04369627 410.97521397 -163.09765625 407.87109375 C-139.86422272 382.24391252 -121.42166904 348.85902472 -119.72265625 313.74609375 C-120.05265625 313.41609375 -120.38265625 313.08609375 -120.72265625 312.74609375 C-120.39265625 311.75609375 -120.06265625 310.76609375 -119.72265625 309.74609375 C-123.18434784 309.74609375 -124.4373707 310.50770864 -127.4140625 312.203125 Z " fill="#161615" transform="translate(515.72265625,238.25390625)"/>
<path d="M0 0 C3.3750384 2.5312788 4.7837169 4.18797283 5.875 8.28515625 C6.50225587 14.88100442 4.0976736 21.12497966 2.25 27.375 C1.80674091 28.91385623 1.3648232 30.45309931 0.92407227 31.99267578 C-0.10175627 35.56647488 -1.13727108 39.13732444 -2.17724609 42.70703125 C-4.05777455 49.1777003 -5.89447437 55.66063402 -7.73055458 62.14401436 C-15.6646154 90.14200325 -23.79435827 118.06289729 -32.5625 145.8125 C-32.92779816 146.96901062 -33.29309631 148.12552124 -33.66946411 149.31707764 C-34.69375306 152.55247325 -35.72229054 155.786465 -36.75390625 159.01953125 C-37.05510376 159.96529526 -37.35630127 160.91105927 -37.66662598 161.88548279 C-38.98339227 165.98396766 -40.315009 170.03394922 -42 174 C-41.40203613 173.7004541 -40.80407227 173.4009082 -40.18798828 173.09228516 C-24.87094043 165.46661817 -9.34869663 158.42965136 6.375 151.6875 C7.24203552 151.31417542 8.10907104 150.94085083 9.00238037 150.55621338 C26.7279865 142.93630949 44.58255571 135.77590126 63.0625 130.1875 C64.25037109 129.81947266 65.43824219 129.45144531 66.66210938 129.07226562 C86.71428231 122.92351923 86.71428231 122.92351923 95.4375 122.125 C96.38496094 122.02445312 97.33242188 121.92390625 98.30859375 121.8203125 C101.88799017 122.05928527 104.45855019 123.45855019 107 126 C107.375 128.8125 107.375 128.8125 107 132 C102.77452462 136.49611534 97.63413394 137.4867594 91.875 139 C54.13044203 149.50138001 17.62453858 164.10071021 -18.07080078 180.13562012 C-20.00617783 181.00276798 -21.94406738 181.86404432 -23.8828125 182.72363281 C-27.53271451 184.34271269 -31.17337041 185.98183527 -34.8125 187.625 C-36.44989136 188.35203125 -36.44989136 188.35203125 -38.12036133 189.09375 C-39.1183374 189.55007813 -40.11631348 190.00640625 -41.14453125 190.4765625 C-42.01440674 190.86924316 -42.88428223 191.26192383 -43.78051758 191.66650391 C-48.76413733 194.66073238 -50.17509871 199.5659509 -52.1171875 204.796875 C-52.41042908 205.56981903 -52.70367065 206.34276306 -53.00579834 207.13912964 C-53.63740879 208.80476859 -54.26634657 210.47142298 -54.8928833 212.13897705 C-56.56354774 216.58055024 -58.25906427 221.01262136 -59.953125 225.4453125 C-60.2953006 226.34168427 -60.6374762 227.23805603 -60.99002075 228.16159058 C-88.48389078 300.05751769 -122.52571308 388.99145671 -201.12109375 441.81640625 C-210.87592846 445.82687425 -219.65454519 447.72421519 -229.7734375 443.96875 C-239.89392255 439.56545124 -246.88881574 432.25719711 -251 422 C-258.78438852 399.46624375 -252.39134321 373.24904337 -242.3515625 352.44140625 C-231.78331034 331.38204246 -217.58918286 312.57283637 -202 295 C-200.77024445 293.58384449 -199.54098098 292.16726131 -198.3125 290.75 C-197.20850438 289.49984893 -196.10433694 288.24984957 -195 287 C-194.42121094 286.32839844 -193.84242188 285.65679688 -193.24609375 284.96484375 C-187.75636051 278.70160603 -181.92596378 272.78705301 -176.0625 266.875 C-175.20881836 266.00834717 -174.35513672 265.14169434 -173.47558594 264.2487793 C-172.67024414 263.442229 -171.86490234 262.63567871 -171.03515625 261.8046875 C-169.94279663 260.70616455 -169.94279663 260.70616455 -168.82836914 259.58544922 C-167 258 -167 258 -165 258 C-165 257.34 -165 256.68 -165 256 C-164.34 256 -163.68 256 -163 256 C-163 255.34 -163 254.68 -163 254 C-161.7421875 252.6953125 -161.7421875 252.6953125 -159.875 251.125 C-159.14023437 250.50109375 -158.40546875 249.8771875 -157.6484375 249.234375 C-156.77445313 248.49703125 -155.90046875 247.7596875 -155 247 C-153.97016519 246.11075009 -152.94159172 245.22003802 -151.9140625 244.328125 C-148.2972897 241.19351808 -144.65419402 238.09086622 -141 235 C-140.06341553 234.20601807 -140.06341553 234.20601807 -139.10791016 233.39599609 C-128.56247298 224.50293926 -117.5319541 216.56304378 -106 209 C-104.8258252 208.22825439 -104.8258252 208.22825439 -103.62792969 207.44091797 C-101.28037185 205.90687509 -98.92217983 204.39031218 -96.5625 202.875 C-95.78592041 202.36235596 -95.00934082 201.84971191 -94.20922852 201.3215332 C-90.16660244 198.7201731 -86.3796979 196.67848753 -81.81640625 195.140625 C-74.48507649 192.46188311 -68.97698098 189.5701654 -65.0859375 182.54345703 C-60.89315056 173.23036406 -58.26368805 163.26591751 -55.53759766 153.44970703 C-54.04830827 148.10483277 -52.40876437 142.81544413 -50.73046875 137.52734375 C-43.58454704 114.88383279 -37.11286396 92.04358674 -30.6875 69.1875 C-30.49299507 68.49597965 -30.29849014 67.8044593 -30.09809113 67.0919838 C-26.32400873 53.67018513 -22.55451488 40.24810943 -19.03125 26.7578125 C-18.71568901 25.55899193 -18.71568901 25.55899193 -18.39375305 24.33595276 C-17.481326 20.8679271 -16.58345918 17.39813496 -15.72338867 13.91674805 C-13.04696497 3.61873005 -13.04696497 3.61873005 -8 0 C-4.57930706 -1.14023098 -3.38312738 -1.12770913 0 0 Z M-80.953125 210.9296875 C-82.46036133 211.86784302 -82.46036133 211.86784302 -83.99804688 212.82495117 C-85.07119141 213.50146729 -86.14433594 214.1779834 -87.25 214.875 C-88.34376953 215.56247314 -89.43753906 216.24994629 -90.56445312 216.95825195 C-97.99846452 221.66179547 -105.27379948 226.48261183 -112.32080078 231.74902344 C-114.1610248 233.1199609 -116.01560372 234.47011828 -117.87109375 235.8203125 C-136.30498376 249.32514062 -152.94222997 264.90185103 -169.125 281 C-169.72828125 281.5986084 -170.3315625 282.1972168 -170.953125 282.81396484 C-178.22199573 289.07860955 -178.22199573 289.07860955 -182 297 C-182.66 297 -183.32 297 -184 297 C-186.73125836 299.89375886 -189.13051469 303.06932282 -191.5859375 306.19873047 C-192.55285567 307.43041594 -193.52443832 308.65845007 -194.5 309.88330078 C-209.75140899 329.05718152 -223.10021852 349.66612588 -231 373 C-231.58974609 374.66675781 -231.58974609 374.66675781 -232.19140625 376.3671875 C-236.25366719 389.30414393 -238.01680504 406.32756592 -232.26953125 419 C-229.37913153 423.55349124 -225.30736246 426.76572966 -220 428 C-205.68027362 428.22729724 -193.5569951 418.20761348 -183.71875 408.82421875 C-181.78428397 406.90779811 -179.8891732 404.96091396 -178 403 C-176.80503906 401.80697266 -176.80503906 401.80697266 -175.5859375 400.58984375 C-146.86561711 371.82613919 -127.47212007 334.36170759 -110.34960938 297.87304688 C-109.50638414 296.07798998 -108.65935813 294.28470783 -107.80664062 292.49414062 C-101.42720391 279.08744144 -95.81853595 265.38306075 -90.25 251.625 C-89.88573914 250.72566742 -89.52147827 249.82633484 -89.1461792 248.89974976 C-80.77412605 228.72904499 -80.77412605 228.72904499 -74 208 C-76.91576379 208 -78.48690214 209.39213661 -80.953125 210.9296875 Z " fill="#151615" transform="translate(776,341)"/>
<path d="M0 0 C2.79843956 -0.11329715 5.59437739 -0.18777114 8.39453125 -0.2421875 C9.21211914 -0.26845215 10.02970703 -0.2947168 10.87207031 -0.32177734 C14.78121056 -0.33262216 16.72217268 -0.12060264 20.15234375 1.9375 C22.14453125 4.1328125 22.14453125 4.1328125 22.76953125 7.6328125 C22.14453125 11.1328125 22.14453125 11.1328125 20.18212891 13.25390625 C16.1394774 15.75448863 12.58543827 16.16462216 7.91796875 16.6953125 C6.99736664 16.81334229 6.07676453 16.93137207 5.12826538 17.05297852 C2.13561921 17.43127238 -0.8592173 17.78430791 -3.85546875 18.1328125 C-5.83825049 18.36950417 -7.82099782 18.60648422 -9.80371094 18.84375 C-12.91518379 19.21313232 -16.02688709 19.5803038 -19.13902283 19.94406128 C-44.42650209 22.89980328 -69.48157208 26.55633459 -94.54296875 31.0078125 C-95.23960381 31.13152222 -95.93623886 31.25523193 -96.65398407 31.38269043 C-105.39293897 32.9369216 -114.13150323 34.49632799 -122.85546875 36.1328125 C-124.19657463 36.30890549 -124.19657463 36.30890549 -125.56477356 36.48855591 C-128.27398641 36.97583605 -128.27398641 36.97583605 -129.96875 40.453125 C-130.72424521 42.04423321 -131.45492123 43.64723447 -132.16796875 45.2578125 C-132.58836426 46.1753833 -133.00875977 47.0929541 -133.44189453 48.03833008 C-146.74459093 77.56296496 -158.23355741 107.95999176 -170.22323608 138.03115845 C-172.84786592 144.61253682 -175.48062103 151.19058785 -178.12109375 157.765625 C-195.16130157 200.20645272 -211.50174303 242.89464515 -227.57110596 285.71069336 C-228.74868316 288.84828775 -229.9267238 291.98570759 -231.10498047 295.12304688 C-233.02282764 300.23008715 -234.93937976 305.33761237 -236.85546875 310.4453125 C-237.14676666 311.22154968 -237.43806458 311.99778687 -237.7381897 312.79754639 C-240.81800193 321.00542322 -243.88890969 329.21646673 -246.93933105 337.43531799 C-248.32433447 341.16522403 -249.71301205 344.89375702 -251.10205078 348.62216187 C-251.76308331 350.39965181 -252.42230864 352.17781504 -253.07958984 353.95669556 C-253.98479476 356.40640928 -254.89604746 358.85379461 -255.80859375 361.30078125 C-256.07351624 362.02272675 -256.33843872 362.74467224 -256.61138916 363.48849487 C-260.07818562 372.73637575 -260.07818562 372.73637575 -263.60546875 375.5078125 C-267.08096569 376.47322832 -269.39933959 376.12027797 -272.85546875 375.1328125 C-275.35546875 372.6328125 -275.35546875 372.6328125 -276.85546875 369.1328125 C-276.64123859 360.77783637 -273.7430689 353.33657703 -270.91796875 345.5703125 C-270.38648036 344.08819718 -269.85540655 342.60593313 -269.32470703 341.12353516 C-262.87334694 323.18134974 -256.1206268 305.34792575 -249.38873291 287.50965881 C-246.67790996 280.32396261 -243.98262515 273.13260232 -241.296875 265.9375 C-231.33612695 239.26258011 -221.1947444 212.66330353 -210.85546875 186.1328125 C-210.48659546 185.18623779 -210.11772217 184.23966309 -209.7376709 183.2644043 C-204.13020574 168.87938056 -198.49930556 154.50360075 -192.85546875 140.1328125 C-192.51046326 139.253974 -192.16545776 138.3751355 -191.80999756 137.46966553 C-181.89851934 112.22369186 -171.8275814 87.05346804 -161.41796875 62.0078125 C-161.01666748 61.04182129 -160.61536621 60.07583008 -160.2019043 59.08056641 C-157.82984406 53.39584458 -155.38531407 47.74912096 -152.85546875 42.1328125 C-174.1711135 47.50817347 -195.46461054 52.95339412 -216.66796875 58.7578125 C-217.96494186 59.11252121 -217.96494186 59.11252121 -219.28811646 59.47439575 C-229.4504749 62.25594124 -239.60599514 65.06204051 -249.75858402 67.87901306 C-255.4096365 69.44672285 -261.06197572 71.00974514 -266.71498775 72.57037354 C-270.89130164 73.72380751 -275.06576992 74.88363587 -279.23895264 76.04834461 C-281.2223649 76.60073882 -283.20663281 77.149925 -285.1913147 77.69773865 C-287.63115428 78.37121638 -290.0696323 79.04965463 -292.50643921 79.73402405 C-309.85095983 84.49470625 -309.85095983 84.49470625 -317.85546875 81.1328125 C-320.0804427 79.05138526 -320.71078141 77.68262441 -321.48046875 74.7578125 C-320.67931797 71.39297922 -319.08724794 69.70861031 -316.39916992 67.59350586 C-313.28087633 65.80285891 -310.08428377 64.77019812 -306.65625 63.76171875 C-305.95176224 63.54842422 -305.24727448 63.3351297 -304.5214386 63.1153717 C-302.30180202 62.4463353 -300.07902431 61.7886929 -297.85546875 61.1328125 C-296.51153465 60.73167956 -295.16762138 60.33047682 -293.82373047 59.92919922 C-289.40403419 58.61762228 -284.97491683 57.33980084 -280.54296875 56.0703125 C-279.69740417 55.8279184 -278.8518396 55.58552429 -277.98065186 55.33578491 C-258.855596 49.87120429 -239.64350817 44.72751919 -220.42642593 39.59834671 C-218.02794979 38.95798923 -215.62972258 38.31670665 -213.23153687 37.67526245 C-192.39057081 32.10426873 -171.51039411 26.71216011 -150.5645771 21.54847431 C-147.51751953 20.79694896 -144.47432839 20.03420583 -141.43597412 19.24813843 C-136.02626733 17.85210376 -130.81877122 16.72115723 -125.26171875 16.1484375 C-119.46976608 15.49840616 -113.7475629 14.65110145 -108.01171875 13.6171875 C-107.24504883 13.4795549 -106.47837891 13.3419223 -105.68847656 13.20011902 C-104.08197358 12.91127026 -102.47552962 12.62209309 -100.86914062 12.33261108 C-67.61658439 6.38237038 -33.76858531 1.57063188 0 0 Z " fill="#161615" transform="translate(771.85546875,274.8671875)"/>
<path d="M0 0 C0.33 0.66 0.66 1.32 1 2 C-0.90261794 6.16197674 -3.86791174 8.96847773 -7.09375 12.10546875 C-11.05847076 16.04581623 -14.89617622 20.07852897 -17.6875 24.9375 C-19.3127592 27.49147874 -20.16768817 27.36044572 -23 28 C-24.28436734 29.9837767 -24.28436734 29.9837767 -25 32 C-25.66 31.67 -26.32 31.34 -27 31 C-18.09056076 20.58370979 -9.1198041 10.23313083 0 0 Z " fill="#212121" transform="translate(589,619)"/>
<path d="M0 0 C1.64339191 2.80343325 1.5818873 4.6312528 1.0625 7.8125 C-2.51882723 11.85593397 -7.69520461 13.80905527 -12.9375 14.8125 C-15.21484375 14.38671875 -15.21484375 14.38671875 -16.9375 13.8125 C-15.9375 11.8125 -15.9375 11.8125 -12.99609375 10.7421875 C-11.80113281 10.39414062 -10.60617187 10.04609375 -9.375 9.6875 C-7.57869141 9.15769531 -7.57869141 9.15769531 -5.74609375 8.6171875 C-4.81925781 8.35164063 -3.89242187 8.08609375 -2.9375 7.8125 C-2.77062552 5.39604218 -2.77062552 5.39604218 -2.9375 2.8125 C-4.87720052 0.42857883 -4.87720052 0.42857883 -8.4140625 0.6171875 C-9.79700968 0.63048507 -11.17988654 0.65433768 -12.5625 0.6875 C-13.26890625 0.69652344 -13.9753125 0.70554687 -14.703125 0.71484375 C-16.44806098 0.73842397 -18.19282295 0.77429539 -19.9375 0.8125 C-14.45412825 -2.84308117 -5.79702539 -3.55301556 0 0 Z " fill="#333333" transform="translate(881.9375,465.1875)"/>
<path d="M0 0 C0.495 0.99 0.495 0.99 1 2 C-11.375 2.495 -11.375 2.495 -24 3 C-24 3.33 -24 3.66 -24 4 C-26.75026417 4.05404449 -29.49946203 4.09369306 -32.25 4.125 C-33.02730469 4.14175781 -33.80460938 4.15851563 -34.60546875 4.17578125 C-35.35957031 4.18222656 -36.11367188 4.18867188 -36.890625 4.1953125 C-37.58188477 4.20578613 -38.27314453 4.21625977 -38.98535156 4.22705078 C-41.33928987 3.96176205 -42.95207812 3.16048907 -45 2 C-29.96077236 0.60376553 -15.1054627 -0.30379702 0 0 Z " fill="#3E3E3E" transform="translate(789,275)"/>
<path d="M0 0 C2.19946289 0.35107422 2.19946289 0.35107422 4 1 C0.37280589 4.88025416 -2.01642617 7.11432341 -7 9 C-8.53228729 10.73545927 -8.53228729 10.73545927 -10 13 C-13.62855842 17.56285789 -17.41601058 21.39829403 -22 25 C-22.66 24.34 -23.32 23.68 -24 23 C-21.31677754 20.28740084 -18.627651 17.58072673 -15.9375 14.875 C-15.18533203 14.11445313 -14.43316406 13.35390625 -13.65820312 12.5703125 C-11.45749948 10.36008199 -9.23791063 8.17252207 -7 6 C-6.34660645 5.36352539 -5.69321289 4.72705078 -5.02001953 4.07128906 C-3.19140625 2.3828125 -3.19140625 2.3828125 0 0 Z " fill="#202020" transform="translate(298,316)"/>
<path d="M0 0 C0.99 0.33 1.98 0.66 3 1 C2.59273682 1.37697021 2.18547363 1.75394043 1.76586914 2.14233398 C-5.95831951 9.29992959 -13.63194022 16.47367641 -21 24 C-21.66 24.66 -22.32 25.32 -23 26 C-23.33 24.68 -23.66 23.36 -24 22 C-23.48050781 21.56429687 -22.96101562 21.12859375 -22.42578125 20.6796875 C-18.75041127 17.54101665 -15.56040272 14.4870457 -12.55078125 10.69140625 C-8.86203436 6.66816343 -4.55600569 2.99737217 0 0 Z " fill="#212121" transform="translate(251,645)"/>
<path d="M0 0 C2.96437825 3.28762163 3.36766943 5.56507756 3.5 9.9375 C3.69704269 16.43169869 5.96483719 20.02681548 10.1875 24.8125 C10.71730469 25.41707031 11.24710938 26.02164063 11.79296875 26.64453125 C12.19128906 27.09183594 12.58960938 27.53914062 13 28 C10 28 10 28 8 27 C8 26.34 8 25.68 8 25 C7.34 25 6.68 25 6 25 C4.74609375 23.390625 4.74609375 23.390625 3.4375 21.25 C3.00308594 20.55390625 2.56867188 19.8578125 2.12109375 19.140625 C-0.13200579 14.83853948 -0.11076313 11.07631304 -0.0625 6.25 C-0.05347656 5.07953125 -0.04445312 3.9090625 -0.03515625 2.703125 C-0.02355469 1.81109375 -0.01195312 0.9190625 0 0 Z " fill="#2B2B2A" transform="translate(189,702)"/>
<path d="M0 0 C0.05398987 2.27057377 0.09278742 4.54151288 0.125 6.8125 C0.14820313 8.07707031 0.17140625 9.34164062 0.1953125 10.64453125 C0 14 0 14 -2 17 C-3.34096777 14.31806447 -3.01150432 11.91592208 -2.96875 8.9765625 C-3.00227898 6.85585435 -3.32910345 5.01268964 -4 3 C-5.98 3.66 -7.96 4.32 -10 5 C-9.01906046 2.54765115 -8.31296172 1.2190732 -6.125 -0.3125 C-3.62654486 -1.12082372 -2.47071024 -0.71847013 0 0 Z " fill="#191918" transform="translate(398,546)"/>
<path d="M0 0 C0 0.66 0 1.32 0 2 C-3.16258051 2.84937877 -6.33059431 3.67648869 -9.5 4.5 C-10.386875 4.73847656 -11.27375 4.97695313 -12.1875 5.22265625 C-17.62831895 6.62286701 -22.38320192 7.2624672 -28 7 C-24.23827746 4.49218497 -20.57418137 3.57075433 -16.25 2.375 C-15.46367188 2.14554687 -14.67734375 1.91609375 -13.8671875 1.6796875 C-9.08321802 0.34462625 -4.96431202 -0.25219767 0 0 Z " fill="#232322" transform="translate(864,466)"/>
<path d="M0 0 C0.33 0 0.66 0 1 0 C1.33 2.97 1.66 5.94 2 9 C1.67 9 1.34 9 1 9 C0.97092916 12.58331625 0.95317737 16.16660208 0.9375 19.75 C0.92912109 20.76578125 0.92074219 21.7815625 0.91210938 22.828125 C0.90888672 23.8078125 0.90566406 24.7875 0.90234375 25.796875 C0.89448853 27.14797363 0.89448853 27.14797363 0.88647461 28.52636719 C0.91395406 30.97609473 0.91395406 30.97609473 1.56469727 33.18457031 C2.1645053 35.68606922 1.29796666 36.86217256 0 39 C-2.42400403 25.38662023 -2.0510095 13.56962535 0 0 Z " fill="#363635" transform="translate(524,721)"/>
<path d="M0 0 C1.98467896 7.93871584 -1.21032547 17.86649501 -5 25 C-6.98 25.99 -6.98 25.99 -9 27 C-6.03 18.09 -3.06 9.18 0 0 Z " fill="#282828" transform="translate(718,501)"/>
<path d="M0 0 C1.109375 1.61328125 1.109375 1.61328125 2 4 C1.390625 6.91796875 1.390625 6.91796875 0.25 10.1875 C-1.50504702 15.44078265 -2.89674856 20.57568041 -4 26 C-4.66 25.34 -5.32 24.68 -6 24 C-5.85652409 15.53492146 -2.81573086 7.88612443 0 0 Z " fill="#272627" transform="translate(501,620)"/>
<path d="M0 0 C-15.56036446 5.55580866 -15.56036446 5.55580866 -24 6 C-24.33 5.34 -24.66 4.68 -25 4 C-24.39671875 3.86722656 -23.7934375 3.73445312 -23.171875 3.59765625 C-22.37265625 3.42105469 -21.5734375 3.24445312 -20.75 3.0625 C-19.96109375 2.88847656 -19.1721875 2.71445312 -18.359375 2.53515625 C-16.23121297 2.052444 -14.11467158 1.53836822 -12 1 C-12 0.34 -12 -0.32 -12 -1 C-3.96428571 -2.33928571 -3.96428571 -2.33928571 0 0 Z " fill="#2A2A2A" transform="translate(268,729)"/>
<path d="M0 0 C2.68830235 0.37141019 3.83740183 0.83704526 5.78125 2.78515625 C9.47158209 7.67484627 12.46333584 12.41933885 15 18 C14.34 18.99 13.68 19.98 13 21 C12.66226562 20.30132813 12.32453125 19.60265625 11.9765625 18.8828125 C11.53054688 17.97273437 11.08453125 17.06265625 10.625 16.125 C10.18414062 15.22007812 9.74328125 14.31515625 9.2890625 13.3828125 C8.09497301 10.90465528 8.09497301 10.90465528 6 9 C4.64721885 7.01310269 3.31431695 5.01254782 2 3 C1.34 2.01 0.68 1.02 0 0 Z " fill="#232322" transform="translate(378,506)"/>
<path d="M0 0 C1.20171204 3.60513612 0.70719075 4.43559272 -0.65234375 7.88671875 C-1.01650391 8.82451172 -1.38066406 9.76230469 -1.75585938 10.72851562 C-2.34077148 12.19321289 -2.34077148 12.19321289 -2.9375 13.6875 C-3.32357422 14.67556641 -3.70964844 15.66363281 -4.10742188 16.68164062 C-5.06332125 19.12449459 -6.02778293 21.56360441 -7 24 C-8.0546875 22.1953125 -8.0546875 22.1953125 -9 20 C-8.125 16.875 -8.125 16.875 -7 14 C-7 13.34 -7 12.68 -7 12 C-6.34 12 -5.68 12 -5 12 C-5 11.34 -5 10.68 -5 10 C-4.34 10 -3.68 10 -3 10 C-2.95101562 9.36191406 -2.90203125 8.72382812 -2.8515625 8.06640625 C-2.77679687 7.24011719 -2.70203125 6.41382813 -2.625 5.5625 C-2.55539062 4.73878906 -2.48578125 3.91507813 -2.4140625 3.06640625 C-2.27742187 2.38449219 -2.14078125 1.70257812 -2 1 C-1.34 0.67 -0.68 0.34 0 0 Z " fill="#2B2B2B" transform="translate(547,548)"/>
<path d="M0 0 C6.6 0.33 13.2 0.66 20 1 C20 1.66 20 2.32 20 3 C12.88319978 4.77920006 6.83658271 4.2788609 0 2 C0 1.34 0 0.68 0 0 Z " fill="#252423" transform="translate(546,783)"/>
<path d="M0 0 C0 0.33 0 0.66 0 1 C-2.49723452 1.67885987 -4.99696141 2.34317427 -7.5 3 C-8.19609375 3.19078125 -8.8921875 3.3815625 -9.609375 3.578125 C-14.5412919 4.85677012 -18.90580091 5.18357474 -24 5 C-21.32141077 2.32141077 -18.37045039 1.7647244 -14.8125 0.8125 C-14.16474609 0.62236328 -13.51699219 0.43222656 -12.84960938 0.23632812 C-8.10125917 -1.04918926 -4.7177569 -0.96068461 0 0 Z " fill="#252424" transform="translate(463,252)"/>
<path d="M0 0 C1.14680101 3.44040303 0.87124738 4.00270384 -0.43359375 7.23046875 C-0.75263672 8.03291016 -1.07167969 8.83535156 -1.40039062 9.66210938 C-1.74263672 10.49548828 -2.08488281 11.32886719 -2.4375 12.1875 C-2.77587891 13.03248047 -3.11425781 13.87746094 -3.46289062 14.74804688 C-4.30025552 16.83556216 -5.14620197 18.91916409 -6 21 C-6.33 21 -6.66 21 -7 21 C-6.53292577 13.87711805 -5.07048045 7.48856246 -2 1 C-1.34 0.67 -0.68 0.34 0 0 Z " fill="#282827" transform="translate(523,612)"/>
<path d="M0 0 C-7.32162492 6.17865633 -18.963696 4.1171855 -28 4 C-28 3.67 -28 3.34 -28 3 C-24.83486722 2.48996146 -21.66769716 1.99384043 -18.5 1.5 C-17.613125 1.35691406 -16.72625 1.21382813 -15.8125 1.06640625 C-10.46923901 0.24134389 -5.40603486 -0.15157107 0 0 Z " fill="#343433" transform="translate(719,281)"/>
<path d="M0 0 C0.33 0.99 0.66 1.98 1 3 C-0.6396875 4.0828125 -0.6396875 4.0828125 -2.3125 5.1875 C-5.47747902 7.43361414 -7.20925046 9.5127509 -9 13 C-9.66 13.66 -10.32 14.32 -11 15 C-13.125 14.625 -13.125 14.625 -15 14 C-10.18808428 9.07559794 -5.29012124 4.40843437 0 0 Z " fill="#20201F" transform="translate(237,638)"/>
<path d="M0 0 C0.59167969 0.2165625 1.18335938 0.433125 1.79296875 0.65625 C-1.84594174 4.54903797 -4.23060328 6.74223924 -9.20703125 8.65625 C-11.97855337 11.17681045 -11.97855337 11.17681045 -14.20703125 13.65625 C-14.86703125 13.32625 -15.52703125 12.99625 -16.20703125 12.65625 C-12.72355793 9.0774841 -9.19147804 5.54207107 -5.51953125 2.15625 C-4.97941406 1.6509375 -4.43929688 1.145625 -3.8828125 0.625 C-2.20703125 -0.34375 -2.20703125 -0.34375 0 0 Z " fill="#2B2B2B" transform="translate(300.20703125,316.34375)"/>
<path d="M0 0 C0 0.99 0 1.98 0 3 C-2.75026417 3.05404449 -5.49946203 3.09369306 -8.25 3.125 C-9.02730469 3.14175781 -9.80460938 3.15851563 -10.60546875 3.17578125 C-17.72431144 3.23662606 -17.72431144 3.23662606 -21 1 C-13.97360585 0.25194283 -7.06608191 -0.13794954 0 0 Z " fill="#313130" transform="translate(765,276)"/>
<path d="M0 0 C0.33 0 0.66 0 1 0 C2.33672837 7.68618813 2.61566789 15.32557751 1 23 C0.67 23 0.34 23 0 23 C-1.59497345 15.22450441 -1.13425151 7.7979791 0 0 Z " fill="#323131" transform="translate(532,264)"/>
<path d="M0 0 C0.66 0 1.32 0 2 0 C-0.16163513 6.93998648 -2.8936214 13.43117569 -6 20 C-6.33 20 -6.66 20 -7 20 C-6.49202991 15.6822542 -5.80317221 11.96697886 -4 8 C-3.34 8 -2.68 8 -2 8 C-1.855625 6.865625 -1.71125 5.73125 -1.5625 4.5625 C-1 1 -1 1 0 0 Z " fill="#242424" transform="translate(693,616)"/>
<path d="M0 0 C0.99 0.33 1.98 0.66 3 1 C0.71287089 2.83925787 -1.57928535 4.67151494 -3.875 6.5 C-4.52597656 7.02464844 -5.17695313 7.54929687 -5.84765625 8.08984375 C-6.47285156 8.58613281 -7.09804688 9.08242188 -7.7421875 9.59375 C-8.3182373 10.05458984 -8.89428711 10.51542969 -9.48779297 10.99023438 C-11 12 -11 12 -13 12 C-11.47022724 7.99000394 -8.98468218 6.17346767 -5.5625 3.6875 C-4.59441406 2.96949219 -3.62632812 2.25148438 -2.62890625 1.51171875 C-1.32759766 0.76341797 -1.32759766 0.76341797 0 0 Z " fill="#242423" transform="translate(302,604)"/>
<path d="M0 0 C1 2 1 2 -0.21484375 5.6953125 C-0.78133585 7.17485658 -1.35591889 8.65132181 -1.9375 10.125 C-2.22818359 10.87910156 -2.51886719 11.63320313 -2.81835938 12.41015625 C-3.53874998 14.27608602 -4.26850404 16.1383958 -5 18 C-6.1171875 16.3515625 -6.1171875 16.3515625 -7 14 C-6.3203125 11.2734375 -6.3203125 11.2734375 -5.125 8.375 C-3.54299899 4.79102721 -3.54299899 4.79102721 -3 1 C-2.01 0.67 -1.02 0.34 0 0 Z " fill="#272726" transform="translate(533,586)"/>
<path d="M0 0 C0.66 0.33 1.32 0.66 2 1 C-2.54695401 6.11532327 -7.5283701 8.84279003 -14 11 C-14.66 10.34 -15.32 9.68 -16 9 C-15.01257813 8.51789062 -14.02515625 8.03578125 -13.0078125 7.5390625 C-11.7134369 6.90125423 -10.41917179 6.26322171 -9.125 5.625 C-8.47402344 5.30789063 -7.82304688 4.99078125 -7.15234375 4.6640625 C-4.41822959 3.31109879 -2.17227482 2.17227482 0 0 Z " fill="#2A2A2A" transform="translate(581,758)"/>
<path d="M0 0 C0.99 0.33 1.98 0.66 3 1 C-0.80770026 4.23077598 -4.52729632 6.8043091 -9 9 C-11.21484375 8.60546875 -11.21484375 8.60546875 -13 8 C-10.90320896 6.63304778 -8.7989062 5.28153009 -6.6875 3.9375 C-6.09259766 3.54755859 -5.49769531 3.15761719 -4.88476562 2.75585938 C-3.30390365 1.75788505 -1.65405288 0.87131304 0 0 Z " fill="#252525" transform="translate(341,562)"/>
<path d="M0 0 C-1.65 0.33 -3.3 0.66 -5 1 C-5 1.66 -5 2.32 -5 3 C-12.625 5.125 -12.625 5.125 -16 4 C-16 4.66 -16 5.32 -16 6 C-18.97 5.505 -18.97 5.505 -22 5 C-18.34769809 2.93565544 -14.46285314 1.88773898 -10.4375 0.8125 C-9.76525391 0.62236328 -9.09300781 0.43222656 -8.40039062 0.23632812 C-5.06224704 -0.66202035 -3.34942122 -1.11647374 0 0 Z " fill="#313130" transform="translate(534,321)"/>
<path d="M0 0 C1.39214652 4.17643955 -0.29335734 6.83437793 -1.9375 10.6875 C-2.22818359 11.38939453 -2.51886719 12.09128906 -2.81835938 12.81445312 C-3.53710313 14.54650775 -4.26745331 16.27373781 -5 18 C-6.1484375 16.390625 -6.1484375 16.390625 -7 14 C-6.1015625 10.984375 -6.1015625 10.984375 -4.625 7.75 C-4.14289062 6.67234375 -3.66078125 5.5946875 -3.1640625 4.484375 C-2.77992188 3.66453125 -2.39578125 2.8446875 -2 2 C-1.34 2 -0.68 2 0 2 C0 1.34 0 0.68 0 0 Z " fill="#2A2A29" transform="translate(601,409)"/>
<path d="M0 0 C0.54269531 0.37511719 1.08539062 0.75023437 1.64453125 1.13671875 C-0.64529215 2.14113215 -2.93712865 3.14039487 -5.23046875 4.13671875 C-5.88144531 4.42289063 -6.53242187 4.7090625 -7.203125 5.00390625 C-12.12890625 7.13671875 -12.12890625 7.13671875 -14.35546875 7.13671875 C-13.35546875 4.13671875 -13.35546875 4.13671875 -10.9921875 2.6796875 C-10.01894531 2.23238281 -9.04570313 1.78507813 -8.04296875 1.32421875 C-7.07746094 0.86402344 -6.11195313 0.40382813 -5.1171875 -0.0703125 C-2.35546875 -0.86328125 -2.35546875 -0.86328125 0 0 Z " fill="#212121" transform="translate(772.35546875,512.86328125)"/>
<path d="M0 0 C2.3125 -0.1875 2.3125 -0.1875 5 0 C6.4375 1.3125 6.4375 1.3125 8 3 C9.97620986 4.04622875 11.9737129 5.05439935 14 6 C14 6.33 14 6.66 14 7 C8.34388537 7.56561146 4.77357872 5.71391278 0 3 C0 2.01 0 1.02 0 0 Z " fill="#282827" transform="translate(304,440)"/>
<path d="M0 0 C-2.92910944 1.95273962 -5.08132291 2.75396363 -8.4375 3.6875 C-9.38496094 3.95949219 -10.33242188 4.23148437 -11.30859375 4.51171875 C-13.98918237 4.99803744 -15.46287583 4.89369149 -18 4 C-15.25686894 2.17124596 -13.22925051 1.27962972 -10.125 0.3125 C-9.28195312 0.04050781 -8.43890625 -0.23148437 -7.5703125 -0.51171875 C-4.72316953 -1.05258938 -2.77903135 -0.7420711 0 0 Z " fill="#1C1C1C" transform="translate(557,332)"/>
<path d="M0 0 C-2.58876495 2.58876495 -4.4374907 2.42999851 -8 3 C-8.93972656 3.50660156 -8.93972656 3.50660156 -9.8984375 4.0234375 C-12.36133292 5.16790563 -14.05132873 5.20437268 -16.75 5.125 C-17.54921875 5.10695313 -18.3484375 5.08890625 -19.171875 5.0703125 C-19.77515625 5.04710937 -20.3784375 5.02390625 -21 5 C-17.46211314 3.04041856 -13.81219399 1.9410912 -9.9375 0.8125 C-8.70902344 0.44769531 -7.48054688 0.08289063 -6.21484375 -0.29296875 C-3 -1 -3 -1 0 0 Z " fill="#353534" transform="translate(512,327)"/>
<path d="M0 0 C0.33 0.99 0.66 1.98 1 3 C-0.3125 5.1875 -0.3125 5.1875 -2 7 C-2.66 7 -3.32 7 -4 7 C-4.04125 7.61875 -4.0825 8.2375 -4.125 8.875 C-4.41375 9.57625 -4.7025 10.2775 -5 11 C-8.0625 12.25 -8.0625 12.25 -11 13 C-7.61227103 8.30840284 -4.21814817 3.9700218 0 0 Z " fill="#242424" transform="translate(221,653)"/>
<path d="M0 0 C4.69056641 0.5863208 9.08968731 2.35048907 13 5 C13.33 5.99 13.66 6.98 14 8 C12.6078125 7.505 12.6078125 7.505 11.1875 7 C8.07970709 5.85032996 8.07970709 5.85032996 5 6 C4.67 5.01 4.34 4.02 4 3 C2.35 2.67 0.7 2.34 -1 2 C-0.67 1.34 -0.34 0.68 0 0 Z " fill="#232322" transform="translate(308,461)"/>
<path d="M0 0 C1.875 0.25 1.875 0.25 4 1 C5.25 3.0625 5.25 3.0625 6 5 C6.66 5 7.32 5 8 5 C8 5.66 8 6.32 8 7 C8.99 7.33 9.98 7.66 11 8 C12.1875 10.5625 12.1875 10.5625 13 13 C9.14073288 11.45098223 6.97240841 9.02912393 4.25 5.9375 C3.45078125 5.03902344 2.6515625 4.14054687 1.828125 3.21484375 C0 1 0 1 0 0 Z " fill="#282828" transform="translate(253,425)"/>
<path d="M0 0 C0.33 1.32 0.66 2.64 1 4 C-2.27681643 6.75550472 -5.54173703 9.47280783 -9 12 C-9.66 11.67 -10.32 11.34 -11 11 C-7.37 7.37 -3.74 3.74 0 0 Z " fill="#2E2E2D" transform="translate(609,599)"/>
<path d="M0 0 C0.33 0.66 0.66 1.32 1 2 C0.09239638 4.59732225 -0.87067892 7.09450975 -1.9375 9.625 C-2.22818359 10.33140625 -2.51886719 11.0378125 -2.81835938 11.765625 C-3.53867488 13.51327573 -4.26845694 15.25701915 -5 17 C-5.33 17 -5.66 17 -6 17 C-6 14.03 -6 11.06 -6 8 C-5.34 8 -4.68 8 -4 8 C-4 7.34 -4 6.68 -4 6 C-3.34 6 -2.68 6 -2 6 C-2.33 5.01 -2.66 4.02 -3 3 C-2.01 2.01 -1.02 1.02 0 0 Z " fill="#282827" transform="translate(622,358)"/>
<path d="M0 0 C-1.63412443 1.70840281 -2.86906094 2.93453047 -5 4 C-5 3.34 -5 2.68 -5 2 C-5.9075 2.309375 -6.815 2.61875 -7.75 2.9375 C-8.8225 3.288125 -9.895 3.63875 -11 4 C-11.639375 4.226875 -12.27875 4.45375 -12.9375 4.6875 C-16.05437068 5.15975313 -18.91704857 4.53358775 -22 4 C-22 3.67 -22 3.34 -22 3 C-19.27172635 2.49465273 -16.54255306 1.99556155 -13.8125 1.5 C-13.04357422 1.35691406 -12.27464844 1.21382813 -11.48242188 1.06640625 C-7.60578227 0.36761285 -3.958529 -0.19039017 0 0 Z " fill="#393938" transform="translate(671,288)"/>
<path d="M0 0 C0.33 0.99 0.66 1.98 1 3 C-1.30074488 7.01958931 -4.13994166 9.63367886 -8.375 11.4375 C-9.674375 11.7159375 -9.674375 11.7159375 -11 12 C-9.71937515 10.2925002 -8.38232443 8.62626404 -7 7 C-6.34 7 -5.68 7 -5 7 C-4.731875 6.401875 -4.46375 5.80375 -4.1875 5.1875 C-3.01506533 3.02775192 -1.80630718 1.64209744 0 0 Z " fill="#2B2A2B" transform="translate(605,736)"/>
<path d="M0 0 C1.35304209 4.05912626 0.15216503 5.77149591 -1.4375 9.6875 C-1.91058594 10.86699219 -2.38367188 12.04648437 -2.87109375 13.26171875 C-3.24363281 14.16535156 -3.61617187 15.06898438 -4 16 C-5.109375 14.35546875 -5.109375 14.35546875 -6 12 C-5.390625 9.23828125 -5.390625 9.23828125 -4.25 6.3125 C-3.88390625 5.33925781 -3.5178125 4.36601563 -3.140625 3.36328125 C-2 1 -2 1 0 0 Z " fill="#2A2B2A" transform="translate(553,532)"/>
<path d="M0 0 C3.86252257 0.75529526 7.20180367 2.39484772 10.75 4.0625 C11.92046875 4.61035156 13.0909375 5.15820312 14.296875 5.72265625 C15.18890625 6.14417969 16.0809375 6.56570313 17 7 C12.52329347 8.49223551 9.18619083 6.9428031 5 5 C3.0143407 3.46168463 1.6253085 1.93988434 0 0 Z " fill="#333332" transform="translate(318,447)"/>
<path d="M0 0 C0.66 0.33 1.32 0.66 2 1 C1.57476184 2.60746056 1.13429874 4.21089836 0.6875 5.8125 C0.44386719 6.70582031 0.20023438 7.59914063 -0.05078125 8.51953125 C-1.0200819 11.05247738 -1.95009604 12.2716496 -4 14 C-4.33 13.34 -4.66 12.68 -5 12 C-4.26821134 9.92803369 -3.44100997 7.8891448 -2.5625 5.875 C-2.08941406 4.77929688 -1.61632812 3.68359375 -1.12890625 2.5546875 C-0.75636719 1.71164062 -0.38382813 0.86859375 0 0 Z " fill="#212221" transform="translate(608,343)"/>
<path d="M0 0 C0.66 0 1.32 0 2 0 C0.65070536 3.83663072 -1.07751025 6.65172569 -3.625 9.8125 C-4.25664063 10.60269531 -4.88828125 11.39289062 -5.5390625 12.20703125 C-6.02117188 12.79871094 -6.50328125 13.39039063 -7 14 C-7.33 13.01 -7.66 12.02 -8 11 C-6.41796875 8.30078125 -6.41796875 8.30078125 -4.1875 5.3125 C-3.09501953 3.82169922 -3.09501953 3.82169922 -1.98046875 2.30078125 C-1.32691406 1.54152344 -0.67335938 0.78226563 0 0 Z " fill="#232323" transform="translate(639,717)"/>
<path d="M0 0 C0.99 0.33 1.98 0.66 3 1 C-0.33333333 3.66666667 -3.66666667 6.33333333 -7 9 C-7.66 8.67 -8.32 8.34 -9 8 C-8.9375 6.1875 -8.9375 6.1875 -8 4 C-4.5 2.3125 -4.5 2.3125 -1 1 C-0.67 0.67 -0.34 0.34 0 0 Z " fill="#232222" transform="translate(672,564)"/>
<path d="M0 0 C0.33 0 0.66 0 1 0 C1.33 8.25 1.66 16.5 2 25 C0.16344659 21.32689318 -0.54167838 18.79911316 -1.1875 14.8125 C-1.36667969 13.74644531 -1.54585937 12.68039062 -1.73046875 11.58203125 C-1.81941406 10.72996094 -1.90835938 9.87789063 -2 9 C-1.67 8.67 -1.34 8.34 -1 8 C-0.76924918 6.65252916 -0.58846937 5.29622435 -0.4375 3.9375 C-0.293125 2.638125 -0.14875 1.33875 0 0 Z " fill="#434242" transform="translate(245,387)"/>
<path d="M0 0 C-1 3 -1 3 -3.28515625 4.38671875 C-4.20167969 4.81597656 -5.11820313 5.24523437 -6.0625 5.6875 C-6.98160156 6.12449219 -7.90070312 6.56148437 -8.84765625 7.01171875 C-9.55792969 7.33785156 -10.26820313 7.66398438 -11 8 C-11.66 7.34 -12.32 6.68 -13 6 C-11.21118264 4.99491199 -9.41885304 3.99607264 -7.625 3 C-6.62726562 2.443125 -5.62953125 1.88625 -4.6015625 1.3125 C-2 0 -2 0 0 0 Z " fill="#282827" transform="translate(709,528)"/>
<path d="M0 0 C4.22903599 1.30898733 8.16449568 2.77005563 12 5 C12.33 5.99 12.66 6.98 13 8 C8.0276578 6.50829734 3.58154261 4.39542583 -1 2 C-0.67 1.34 -0.34 0.68 0 0 Z " fill="#262625" transform="translate(323,468)"/>
<path d="M0 0 C5.26170694 1.41167747 8.72171358 3.74850232 13 7 C11.1953125 7.62109375 11.1953125 7.62109375 9 8 C6.95708818 6.73339467 4.95309888 5.40113616 3 4 C2.34 4 1.68 4 1 4 C0.67 2.68 0.34 1.36 0 0 Z " fill="#222221" transform="translate(506,234)"/>
<path d="M0 0 C0.33 0.66 0.66 1.32 1 2 C-0.43359375 4.8203125 -0.43359375 4.8203125 -2.4375 8.125 C-3.09621094 9.22070312 -3.75492187 10.31640625 -4.43359375 11.4453125 C-4.95050781 12.28835938 -5.46742188 13.13140625 -6 14 C-6.98392619 10.8942738 -7.07668347 10.19372667 -5.8125 7 C-4.11364391 4.18810026 -2.43424067 2.18242267 0 0 Z " fill="#282727" transform="translate(397,609)"/>
<path d="M0 0 C0.66 0.33 1.32 0.66 2 1 C-0.55604391 3.98205122 -3.35053322 5.58490064 -7 7 C-9.19140625 6.07421875 -9.19140625 6.07421875 -11 5 C-9.21289414 4.13633178 -7.4201535 3.28431406 -5.625 2.4375 C-4.62726562 1.96183594 -3.62953125 1.48617188 -2.6015625 0.99609375 C-1.74304688 0.66738281 -0.88453125 0.33867187 0 0 Z " fill="#252524" transform="translate(753,506)"/>
<path d="M0 0 C0.66 0.33 1.32 0.66 2 1 C1.360625 1.103125 0.72125 1.20625 0.0625 1.3125 C-0.618125 1.539375 -1.29875 1.76625 -2 2 C-2.33 2.99 -2.66 3.98 -3 5 C-4.70703125 5.765625 -4.70703125 5.765625 -6.8125 6.25 C-7.49957031 6.42015625 -8.18664062 6.5903125 -8.89453125 6.765625 C-11.19499821 7.02170666 -12.80629727 6.69015367 -15 6 C-12.54524486 4.96971956 -10.08685649 3.95054496 -7.625 2.9375 C-6.57699219 2.49567383 -6.57699219 2.49567383 -5.5078125 2.04492188 C-3.69495092 1.30408902 -1.84876857 0.64603036 0 0 Z " fill="#373737" transform="translate(475,496)"/>
<path d="M0 0 C0.55171875 0.36867188 1.1034375 0.73734375 1.671875 1.1171875 C-0.09671191 1.78979101 -1.86808516 2.45507145 -3.640625 3.1171875 C-4.62675781 3.4884375 -5.61289062 3.8596875 -6.62890625 4.2421875 C-9.328125 5.1171875 -9.328125 5.1171875 -12.328125 5.1171875 C-12.328125 4.4571875 -12.328125 3.7971875 -12.328125 3.1171875 C-10.7533956 2.38992698 -9.16788221 1.68598328 -7.578125 0.9921875 C-6.69640625 0.59773438 -5.8146875 0.20328125 -4.90625 -0.203125 C-2.328125 -0.8828125 -2.328125 -0.8828125 0 0 Z " fill="#252525" transform="translate(831.328125,489.8828125)"/>
<path d="M0 0 C-3.63 2.31 -7.26 4.62 -11 7 C-11.33 6.01 -11.66 5.02 -12 4 C-10.76055724 3.13058506 -9.50792941 2.27994543 -8.25 1.4375 C-7.55390625 0.96183594 -6.8578125 0.48617188 -6.140625 -0.00390625 C-4 -1 -4 -1 0 0 Z " fill="#272726" transform="translate(364,292)"/>
<path d="M0 0 C0.92399724 2.50718765 1.16892656 3.60065169 0.109375 6.10546875 C-0.33921875 6.79253906 -0.7878125 7.47960937 -1.25 8.1875 C-1.90742187 9.22970703 -1.90742187 9.22970703 -2.578125 10.29296875 C-4 12 -4 12 -7 13 C-5.35821735 8.22390502 -2.73453298 4.20617096 0 0 Z " fill="#292928" transform="translate(641,685)"/>
<path d="M0 0 C-5.445 3.96 -5.445 3.96 -11 8 C-11.66 7.67 -12.32 7.34 -13 7 C-4.97826087 -1.24456522 -4.97826087 -1.24456522 0 0 Z " fill="#262626" transform="translate(338,582)"/>
<path d="M0 0 C-2.84881728 2.17581687 -5.76084088 4.20937999 -8.75 6.1875 C-9.54921875 6.71730469 -10.3484375 7.24710938 -11.171875 7.79296875 C-11.77515625 8.19128906 -12.3784375 8.58960938 -13 9 C-13.66 8.67 -14.32 8.34 -15 8 C-14.67 7.34 -14.34 6.68 -14 6 C-13.01 6 -12.02 6 -11 6 C-11 5.34 -11 4.68 -11 4 C-7.28157456 1.05984965 -4.79828917 -0.56450461 0 0 Z " fill="#2A2A29" transform="translate(364,565)"/>
<path d="M0 0 C4.22753707 0.67640593 7.44197656 2.7174944 11 5 C11.33 5.99 11.66 6.98 12 8 C7.39571066 6.68448876 3.81679612 4.90803514 0 2 C0 1.34 0 0.68 0 0 Z " fill="#252524" transform="translate(338,476)"/>
<path d="M0 0 C0 0.33 0 0.66 0 1 C-2.64 1 -5.28 1 -8 1 C-8 1.66 -8 2.32 -8 3 C-11.21451269 4.60725635 -14.43612536 4.05748185 -18 4 C-14.89724263 1.93149509 -12.5900783 1.21441918 -9 0.3125 C-7.948125 0.04050781 -6.89625 -0.23148437 -5.8125 -0.51171875 C-3 -1 -3 -1 0 0 Z " fill="#353534" transform="translate(642,293)"/>
<path d="M0 0 C0.66 0.33 1.32 0.66 2 1 C-3.0940919 7.86214442 -3.0940919 7.86214442 -6.875 8.4375 C-7.57625 8.293125 -8.2775 8.14875 -9 8 C-6.14723863 5.06799526 -3.34920216 2.35684596 0 0 Z " fill="#282928" transform="translate(295,592)"/>
<path d="M0 0 C3.07119347 2.37769817 4.30473692 4.2264073 4.875 8 C5.14462046 11.21147931 4.91752412 13.29290712 3 16 C2.15901344 11.98195309 1.94595055 8.98196457 3 5 C1.68 4.34 0.36 3.68 -1 3 C-0.67 2.01 -0.34 1.02 0 0 Z " fill="#30302F" transform="translate(777,342)"/>
<path d="M0 0 C-3.00440021 2.00293347 -4.70993945 2.49271626 -8.1875 3.125 C-9.08855469 3.29257812 -9.98960937 3.46015625 -10.91796875 3.6328125 C-11.60503906 3.75398438 -12.29210937 3.87515625 -13 4 C-13 3.01 -13 2.02 -13 1 C-4.57142857 -1.42857143 -4.57142857 -1.42857143 0 0 Z " fill="#262626" transform="translate(517,343)"/>
<path d="M0 0 C0.33 0.66 0.66 1.32 1 2 C0.26821134 4.07196631 -0.55899003 6.1108552 -1.4375 8.125 C-1.91058594 9.22070312 -2.38367188 10.31640625 -2.87109375 11.4453125 C-3.24363281 12.28835938 -3.61617187 13.13140625 -4 14 C-4.33 14 -4.66 14 -5 14 C-5.31416607 8.76389884 -4.77647622 5.48507697 -2 1 C-1.34 0.67 -0.68 0.34 0 0 Z " fill="#222222" transform="translate(631,336)"/>
<path d="M0 0 C0 0.66 0 1.32 0 2 C-0.9075 2.12375 -1.815 2.2475 -2.75 2.375 C-5.89481366 2.80180047 -5.89481366 2.80180047 -8 4.125 C-10.87234824 5.38165235 -13.01239233 4.67900174 -16 4 C-11.0523795 1.11388804 -5.66834163 0 0 0 Z " fill="#313130" transform="translate(603,302)"/>
<path d="M0 0 C0.99 0.66 1.98 1.32 3 2 C1.21385682 3.03046722 -0.57910018 4.04913236 -2.375 5.0625 C-3.87160156 5.91521484 -3.87160156 5.91521484 -5.3984375 6.78515625 C-6.25695312 7.18605469 -7.11546875 7.58695312 -8 8 C-8.66 7.67 -9.32 7.34 -10 7 C-7.2180632 3.72713318 -3.72045933 2.03572303 0 0 Z " fill="#272626" transform="translate(376,282)"/>
<path d="M0 0 C2.475 0.495 2.475 0.495 5 1 C5.33 1.99 5.66 2.98 6 4 C6.66 4 7.32 4 8 4 C8.66 5.32 9.32 6.64 10 8 C9.34 8.66 8.68 9.32 8 10 C5 6.25 5 6.25 5 4 C4.360625 3.71125 3.72125 3.4225 3.0625 3.125 C1 2 1 2 0 0 Z " fill="#262525" transform="translate(505,254)"/>
<path d="M0 0 C0.75 1.5625 0.75 1.5625 1 4 C-0.02332869 6.54719859 -1.27272296 8.86333587 -3 11 C-3.99 11.33 -4.98 11.66 -6 12 C-4.68139111 7.38486888 -2.78644563 3.90102388 0 0 Z " fill="#242423" transform="translate(541,681)"/>
<path d="M0 0 C0.66 0.99 1.32 1.98 2 3 C-0.33333333 5.33333333 -2.66666667 7.66666667 -5 10 C-5.99 9.67 -6.98 9.34 -8 9 C-6.85459775 7.68712379 -5.70866567 6.37470979 -4.5625 5.0625 C-3.92441406 4.33160156 -3.28632813 3.60070312 -2.62890625 2.84765625 C-1.77458541 1.87860647 -0.91348825 0.91348825 0 0 Z " fill="#20201F" transform="translate(348,650)"/>
<path d="M0 0 C0.99 0.66 1.98 1.32 3 2 C1.40233897 2.86627399 -0.20339944 3.71766465 -1.8125 4.5625 C-2.70582031 5.03816406 -3.59914063 5.51382813 -4.51953125 6.00390625 C-7 7 -7 7 -10 6 C-6.87567603 3.47650757 -3.61939504 1.72743854 0 0 Z " fill="#212121" transform="translate(425,530)"/>
<path d="M0 0 C1.28497537 3.85492611 0.4052209 5.40346836 -0.9375 9.1875 C-1.31777344 10.27417969 -1.69804688 11.36085938 -2.08984375 12.48046875 C-2.39019531 13.31191406 -2.69054687 14.14335937 -3 15 C-5 12 -5 12 -4.609375 9.3359375 C-4.32578125 8.35882813 -4.0421875 7.38171875 -3.75 6.375 C-3.34007812 4.90160156 -3.34007812 4.90160156 -2.921875 3.3984375 C-2 1 -2 1 0 0 Z " fill="#2E2E2D" transform="translate(740,492)"/>
<path d="M0 0 C1 2 1 2 0.22265625 4.6015625 C-0.16019531 5.59929687 -0.54304687 6.59703125 -0.9375 7.625 C-1.50791016 9.12933594 -1.50791016 9.12933594 -2.08984375 10.6640625 C-2.39019531 11.43492187 -2.69054687 12.20578125 -3 13 C-5 10 -5 10 -4.609375 7.7734375 C-4.18398438 6.58621094 -4.18398438 6.58621094 -3.75 5.375 C-3.47671875 4.57835937 -3.2034375 3.78171875 -2.921875 2.9609375 C-2 1 -2 1 0 0 Z " fill="#272726" transform="translate(573,480)"/>
<path d="M0 0 C1.12764117 3.33720834 0.87990246 5.31283494 -0.25 8.625 C-0.50265625 9.40101563 -0.7553125 10.17703125 -1.015625 10.9765625 C-2 13 -2 13 -5 15 C-1.92482916 4.44191344 -1.92482916 4.44191344 0 0 Z " fill="#2A2A2A" transform="translate(594,377)"/>
<path d="M0 0 C0.92565097 3.04838441 1.04155806 5.46489969 0.6875 8.625 C0.60886719 9.40101563 0.53023437 10.17703125 0.44921875 10.9765625 C0 13 0 13 -2 15 C-2.66 15.99 -3.32 16.98 -4 18 C-3.31195504 11.80759538 -1.71951285 5.98044406 0 0 Z " fill="#353635" transform="translate(756,372)"/>
<path d="M0 0 C1.89492188 0.15275391 1.89492188 0.15275391 3.828125 0.30859375 C4.79234375 0.39238281 5.7565625 0.47617187 6.75 0.5625 C6.75 0.8925 6.75 1.2225 6.75 1.5625 C4.12549914 1.78369939 1.50129514 1.98996669 -1.125 2.1875 C-1.87136719 2.25195312 -2.61773438 2.31640625 -3.38671875 2.3828125 C-5.3370047 2.52337365 -7.29469467 2.55009849 -9.25 2.5625 C-9.91 1.9025 -10.57 1.2425 -11.25 0.5625 C-7.43483536 -0.73812431 -3.97438237 -0.33119853 0 0 Z " fill="#323232" transform="translate(761.25,291.4375)"/>
<path d="M0 0 C0.96661363 3.12180401 0.98988909 5.52083795 0.5625 8.75 C0.40974609 9.94882812 0.40974609 9.94882812 0.25390625 11.171875 C0.12822266 12.07679688 0.12822266 12.07679688 0 13 C-0.99 13.33 -1.98 13.66 -3 14 C-2.48594831 9.03083364 -1.76615118 4.70973649 0 0 Z " fill="#2C2C2C" transform="translate(528,707)"/>
<path d="M0 0 C1 2 1 2 0.22265625 4.8203125 C-0.16019531 5.91085937 -0.54304687 7.00140625 -0.9375 8.125 C-1.31777344 9.22070312 -1.69804688 10.31640625 -2.08984375 11.4453125 C-2.39019531 12.28835938 -2.69054687 13.13140625 -3 14 C-4.49767311 11.62868424 -5.08237812 10.4901498 -4.609375 7.67578125 C-4.32578125 6.89589844 -4.0421875 6.11601563 -3.75 5.3125 C-3.47671875 4.52488281 -3.2034375 3.73726562 -2.921875 2.92578125 C-2 1 -2 1 0 0 Z " fill="#2B2B2B" transform="translate(548,703)"/>
<path d="M0 0 C0.66 0 1.32 0 2 0 C0.43358249 4.30764815 -1.68336156 8.06171464 -4 12 C-4.9435441 9.46100862 -5.16906025 8.39090725 -4.07421875 5.859375 C-3.61660156 5.16328125 -3.15898438 4.4671875 -2.6875 3.75 C-2.23761719 3.04359375 -1.78773438 2.3371875 -1.32421875 1.609375 C-0.88722656 1.07828125 -0.45023438 0.5471875 0 0 Z " fill="#222222" transform="translate(659,685)"/>
<path d="M0 0 C0.99 0.33 1.98 0.66 3 1 C3 3.64 3 6.28 3 9 C1.35 9 -0.3 9 -2 9 C-2.33 9.66 -2.66 10.32 -3 11 C-3.66 10.34 -4.32 9.68 -5 9 C-3.02 8.34 -1.04 7.68 1 7 C0.67 4.69 0.34 2.38 0 0 Z " fill="#2F3030" transform="translate(392,527)"/>
<path d="M0 0 C-3.40219265 2.74792483 -7.48464588 6 -12 6 C-12 5.01 -12 4.02 -12 3 C-4.71428571 -0.42857143 -4.71428571 -0.42857143 0 0 Z " fill="#2A2B2B" transform="translate(749,524)"/>
<path d="M0 0 C0 0.99 0 1.98 0 3 C-7.42857143 5.42857143 -7.42857143 5.42857143 -11 4 C-10 2 -10 2 -8.22265625 1.3671875 C-7.50980469 1.20476562 -6.79695312 1.04234375 -6.0625 0.875 C-5.35222656 0.70742188 -4.64195312 0.53984375 -3.91015625 0.3671875 C-2 0 -2 0 0 0 Z " fill="#262625" transform="translate(876,475)"/>
<path d="M0 0 C-1.65 0.33 -3.3 0.66 -5 1 C-5 1.66 -5 2.32 -5 3 C-8.9813783 4.3271261 -12.85045227 4.06915913 -17 4 C-14.05276949 2.03517966 -11.88022174 1.2438783 -8.5 0.3125 C-7.5409375 0.04050781 -6.581875 -0.23148437 -5.59375 -0.51171875 C-3 -1 -3 -1 0 0 Z " fill="#383938" transform="translate(556,315)"/>
<path d="M0 0 C1.23593891 3.70781672 0.5678132 4.67510253 -0.9375 8.1875 C-1.31777344 9.08855469 -1.69804688 9.98960937 -2.08984375 10.91796875 C-2.54037109 11.94857422 -2.54037109 11.94857422 -3 13 C-3.33 13 -3.66 13 -4 13 C-3.85892253 11.54119891 -3.71197585 10.08296449 -3.5625 8.625 C-3.48128906 7.81289063 -3.40007813 7.00078125 -3.31640625 6.1640625 C-3 4 -3 4 -2 2 C-1.34 2 -0.68 2 0 2 C0 1.34 0 0.68 0 0 Z " fill="#2A2A2A" transform="translate(718,556)"/>
<path d="M0 0 C-2.33539809 1.55693206 -4.57968756 2.90200646 -7.0625 4.1875 C-7.75472656 4.55230469 -8.44695312 4.91710937 -9.16015625 5.29296875 C-9.76730469 5.52628906 -10.37445313 5.75960937 -11 6 C-11.66 5.67 -12.32 5.34 -13 5 C-9.01056314 0.61161946 -5.91391458 -0.2688143 0 0 Z " fill="#2D2C2D" transform="translate(459,517)"/>
<path d="M0 0 C0.66 0.33 1.32 0.66 2 1 C1.01 1.33 0.02 1.66 -1 2 C-1 2.66 -1 3.32 -1 4 C-1.99 4.33 -2.98 4.66 -4 5 C-4.66 4.67 -5.32 4.34 -6 4 C-6 4.66 -6 5.32 -6 6 C-6.99 6.33 -7.98 6.66 -9 7 C-9.66 6.34 -10.32 5.68 -11 5 C-9.21289414 4.13633178 -7.4201535 3.28431406 -5.625 2.4375 C-4.62726563 1.96183594 -3.62953125 1.48617188 -2.6015625 0.99609375 C-1.74304688 0.66738281 -0.88453125 0.33867187 0 0 Z " fill="#2E2E2E" transform="translate(456,504)"/>
<path d="M0 0 C1.48454806 0.59082014 2.96254351 1.19812655 4.4375 1.8125 C5.26121094 2.14894531 6.08492188 2.48539062 6.93359375 2.83203125 C9 4 9 4 10 7 C5.76570244 5.68938409 1.92592596 4.05643741 -2 2 C-1.34 1.34 -0.68 0.68 0 0 Z " fill="#292929" transform="translate(293,453)"/>
<path d="M0 0 C1 2 1 2 0.22265625 4.6015625 C-0.16019531 5.59929687 -0.54304687 6.59703125 -0.9375 7.625 C-1.50791016 9.12933594 -1.50791016 9.12933594 -2.08984375 10.6640625 C-2.39019531 11.43492187 -2.69054687 12.20578125 -3 13 C-4.40944669 10.72752255 -5.10681701 9.57574366 -4.609375 6.89453125 C-4.32578125 6.20746094 -4.0421875 5.52039063 -3.75 4.8125 C-3.47671875 4.11769531 -3.2034375 3.42289062 -2.921875 2.70703125 C-2 1 -2 1 0 0 Z " fill="#292928" transform="translate(594,427)"/>
<path d="M0 0 C1.25127906 3.54667178 0.72285053 5.72253438 -0.4375 9.25 C-0.72496094 10.14203125 -1.01242187 11.0340625 -1.30859375 11.953125 C-1.53675781 12.62859375 -1.76492188 13.3040625 -2 14 C-4 11 -4 11 -3.828125 8.80859375 C-3.63734375 8.02613281 -3.4465625 7.24367188 -3.25 6.4375 C-3.06953125 5.65246094 -2.8890625 4.86742187 -2.703125 4.05859375 C-2 2 -2 2 0 0 Z " fill="#2B2B2B" transform="translate(759,428)"/>
<path d="M0 0 C0.58394531 0.35449219 1.16789062 0.70898438 1.76953125 1.07421875 C0.14626255 1.74508995 -1.47914453 2.41078904 -3.10546875 3.07421875 C-4.46285156 3.63109375 -4.46285156 3.63109375 -5.84765625 4.19921875 C-8.23046875 5.07421875 -8.23046875 5.07421875 -10.23046875 5.07421875 C-9.23046875 2.07421875 -9.23046875 2.07421875 -5.91796875 0.26171875 C-2.23046875 -0.92578125 -2.23046875 -0.92578125 0 0 Z " fill="#262626" transform="translate(412.23046875,266.92578125)"/>
<path d="M0 0 C0.578125 1.91015625 0.578125 1.91015625 1 4 C-0.25 5.4375 -0.25 5.4375 -2 7 C-2.7734375 8.3303125 -2.7734375 8.3303125 -3.5625 9.6875 C-4.2740625 10.8321875 -4.2740625 10.8321875 -5 12 C-5.66 12 -6.32 12 -7 12 C-5.44298069 7.32894208 -2.91552627 3.91294315 0 0 Z " fill="#242323" transform="translate(204,672)"/>
<path d="M0 0 C0.66 0.33 1.32 0.66 2 1 C1 4 1 4 -1.3125 5.75 C-4 7 -4 7 -8 6 C-5.36 4.02 -2.72 2.04 0 0 Z " fill="#252525" transform="translate(661,556)"/>
<path d="M0 0 C0.33 0 0.66 0 1 0 C1.63019694 8.19256018 1.63019694 8.19256018 -1 11.5625 C-1.99 12.2740625 -1.99 12.2740625 -3 13 C-2.45144652 8.428721 -1.58255197 4.32564205 0 0 Z " fill="#282928" transform="translate(733,453)"/>
<path d="M0 0 C4.50802601 1.25805377 7.4912812 2.90407165 11 6 C8 7 8 7 5.95703125 6.07421875 C4.89548828 5.38779297 4.89548828 5.38779297 3.8125 4.6875 C3.09707031 4.23761719 2.38164062 3.78773438 1.64453125 3.32421875 C1.10183594 2.88722656 0.55914062 2.45023437 0 2 C0 1.34 0 0.68 0 0 Z " fill="#1E1F1D" transform="translate(340,458)"/>
<path d="M0 0 C1 2 1 2 0.22265625 4.3828125 C-0.16019531 5.28773438 -0.54304687 6.19265625 -0.9375 7.125 C-1.31777344 8.03507812 -1.69804688 8.94515625 -2.08984375 9.8828125 C-2.39019531 10.58148438 -2.69054687 11.28015625 -3 12 C-3.33 12 -3.66 12 -4 12 C-3.67 8.37 -3.34 4.74 -3 1 C-2.01 0.67 -1.02 0.34 0 0 Z " fill="#292928" transform="translate(611,385)"/>
<path d="M0 0 C-0.33 0.99 -0.66 1.98 -1 3 C-3.06640625 3.94921875 -3.06640625 3.94921875 -5.5625 4.6875 C-6.38878906 4.93886719 -7.21507812 5.19023438 -8.06640625 5.44921875 C-8.70449219 5.63097656 -9.34257813 5.81273437 -10 6 C-9.67 5.01 -9.34 4.02 -9 3 C-2.88888889 0 -2.88888889 0 0 0 Z " fill="#262625" transform="translate(580,778)"/>
<path d="M0 0 C1.32 0.33 2.64 0.66 4 1 C0.535 3.97 0.535 3.97 -3 7 C-3.66 6.67 -4.32 6.34 -5 6 C-3.35 4.02 -1.7 2.04 0 0 Z " fill="#202020" transform="translate(611,729)"/>
<path d="M0 0 C0.99 0.33 1.98 0.66 3 1 C0.36 3.64 -2.28 6.28 -5 9 C-5.33 8.01 -5.66 7.02 -6 6 C-4.02 4.02 -2.04 2.04 0 0 Z " fill="#212020" transform="translate(350,670)"/>
<path d="M0 0 C0.33 0.99 0.66 1.98 1 3 C-1.31 4.98 -3.62 6.96 -6 9 C-6.33 8.01 -6.66 7.02 -7 6 C-6.34 6 -5.68 6 -5 6 C-5 5.34 -5 4.68 -5 4 C-3.37373596 2.61767557 -1.7074998 1.28062485 0 0 Z " fill="#202020" transform="translate(618,591)"/>
<path d="M0 0 C1.45047396 2.90094791 0.45356803 4.55972596 -0.4375 7.625 C-0.72496094 8.62789063 -1.01242187 9.63078125 -1.30859375 10.6640625 C-1.53675781 11.43492187 -1.76492188 12.20578125 -2 13 C-2.33 13 -2.66 13 -3 13 C-3.02712066 11.56260487 -3.04645067 10.12506137 -3.0625 8.6875 C-3.07410156 7.88699219 -3.08570313 7.08648437 -3.09765625 6.26171875 C-3 4 -3 4 -2 1 C-1.34 0.67 -0.68 0.34 0 0 Z " fill="#2E2F2E" transform="translate(755,443)"/>
<path d="M0 0 C1.48285242 0.95262034 2.96118201 1.91228405 4.4375 2.875 C5.67306641 3.67550781 5.67306641 3.67550781 6.93359375 4.4921875 C9 6 9 6 10 8 C5.61999924 7.49942848 3.15830185 6.06806466 0 3 C0 2.01 0 1.02 0 0 Z " fill="#252524" transform="translate(277,423)"/>
<path d="M0 0 C0 0.66 0 1.32 0 2 C-4.455 2.495 -4.455 2.495 -9 3 C-9.33 2.34 -9.66 1.68 -10 1 C-3.375 -1.125 -3.375 -1.125 0 0 Z " fill="#212121" transform="translate(253,732)"/>
<path d="M0 0 C0.66 0 1.32 0 2 0 C1.38545304 3.99455527 -0.70646737 6.74466336 -3 10 C-3.75 8.375 -3.75 8.375 -4 6 C-2.1875 2.75 -2.1875 2.75 0 0 Z " fill="#242323" transform="translate(216,681)"/>
<path d="M0 0 C0.8125 1.6875 0.8125 1.6875 1 4 C-1.69270677 7.23124812 -4.22480438 9.23770311 -8 11 C-7.59007812 10.45730469 -7.18015625 9.91460938 -6.7578125 9.35546875 C-6.21898437 8.64003906 -5.68015625 7.92460938 -5.125 7.1875 C-4.59132813 6.47980469 -4.05765625 5.77210938 -3.5078125 5.04296875 C-2.29185219 3.39543703 -1.13583859 1.70375789 0 0 Z " fill="#252525" transform="translate(363,632)"/>
<path d="M0 0 C0.66 0.33 1.32 0.66 2 1 C-1.08290155 5.22797927 -1.08290155 5.22797927 -3 7 C-5.8125 7.375 -5.8125 7.375 -8 7 C-5.4837822 4.39391727 -2.94865641 2.10618315 0 0 Z " fill="#282727" transform="translate(671,549)"/>
<path d="M0 0 C-2.85478326 1.90318884 -4.41941308 2.4619099 -7.6875 3.125 C-8.49574219 3.29257812 -9.30398438 3.46015625 -10.13671875 3.6328125 C-10.75160156 3.75398438 -11.36648438 3.87515625 -12 4 C-11.34 3.67 -10.68 3.34 -10 3 C-10 2.34 -10 1.68 -10 1 C-6.21812119 -0.83691257 -4.05431692 -1.15837626 0 0 Z " fill="#2A2A29" transform="translate(845,486)"/>
<path d="M0 0 C0.33 0 0.66 0 1 0 C1.125 7.625 1.125 7.625 0 11 C-0.99 11 -1.98 11 -3 11 C-2.01 7.37 -1.02 3.74 0 0 Z " fill="#252625" transform="translate(727,473)"/>
<path d="M0 0 C0.66 0 1.32 0 2 0 C1.71640113 1.4391134 1.42278601 2.87625518 1.125 4.3125 C0.88136719 5.51326172 0.88136719 5.51326172 0.6328125 6.73828125 C0 9 0 9 -2 12 C-3.125 7.25 -3.125 7.25 -2 5 C-1.34 5 -0.68 5 0 5 C-0.2784375 4.0409375 -0.2784375 4.0409375 -0.5625 3.0625 C-0.706875 2.381875 -0.85125 1.70125 -1 1 C-0.67 0.67 -0.34 0.34 0 0 Z " fill="#2E2E2F" transform="translate(750,456)"/>
<path d="M0 0 C-0.33 0.66 -0.66 1.32 -1 2 C-4.98866127 2.99716532 -8.0323069 3.0502717 -12 2 C-7.72170329 -0.29194467 -4.74957752 -1.52664992 0 0 Z " fill="#343433" transform="translate(615,300)"/>
<path d="M0 0 C5.61 0.33 11.22 0.66 17 1 C17 1.33 17 1.66 17 2 C12.05 2.33 7.1 2.66 2 3 C2 2.34 2 1.68 2 1 C1.34 0.67 0.68 0.34 0 0 Z " fill="#3A3A3A" transform="translate(216,718)"/>
<path d="M0 0 C0.99 0.33 1.98 0.66 3 1 C-0.96 4.465 -0.96 4.465 -5 8 C-5.33 7.01 -5.66 6.02 -6 5 C-1.60546875 0.99609375 -1.60546875 0.99609375 0 0 Z " fill="#232323" transform="translate(635,593)"/>
<path d="M0 0 C0.61746094 0.34417969 1.23492187 0.68835938 1.87109375 1.04296875 C0.41727478 1.73996427 -1.04213578 2.42530741 -2.50390625 3.10546875 C-3.31601562 3.48832031 -4.128125 3.87117187 -4.96484375 4.265625 C-5.67898438 4.52214844 -6.393125 4.77867187 -7.12890625 5.04296875 C-7.78890625 4.71296875 -8.44890625 4.38296875 -9.12890625 4.04296875 C-3.8713574 -1.74033498 -3.8713574 -1.74033498 0 0 Z " fill="#2A2929" transform="translate(468.12890625,511.95703125)"/>
<path d="M0 0 C0.66 0.99 1.32 1.98 2 3 C1.67 3.66 1.34 4.32 1 5 C1.598125 4.79375 2.19625 4.5875 2.8125 4.375 C5 4 5 4 8 6 C5.1875 6.6875 5.1875 6.6875 2 7 C0.0625 5.8125 0.0625 5.8125 -1 4 C-0.6875 1.8125 -0.6875 1.8125 0 0 Z " fill="#383736" transform="translate(508,310)"/>
<path d="M0 0 C0.66 0.33 1.32 0.66 2 1 C1.360625 1.268125 0.72125 1.53625 0.0625 1.8125 C-2.33131686 2.88667752 -2.33131686 2.88667752 -3 6 C-4.98 6.33 -6.96 6.66 -9 7 C-6.3765992 4.08511023 -3.28183606 2.11496102 0 0 Z " fill="#2B2A29" transform="translate(344,282)"/>
<path d="M0 0 C-0.66 0 -1.32 0 -2 0 C-2 0.66 -2 1.32 -2 2 C-5.21451269 3.60725635 -8.43612536 3.05748185 -12 3 C-7.97869817 0.31913211 -4.73968522 -1.57989507 0 0 Z " fill="#333332" transform="translate(433,242)"/>
<path d="M0 0 C1.09898702 3.29696105 0.87124444 4.40494903 0.0625 7.6875 C-0.22947266 8.89986328 -0.22947266 8.89986328 -0.52734375 10.13671875 C-0.68332031 10.75160156 -0.83929687 11.36648438 -1 12 C-3.13181214 8.25712373 -2.95685425 6.21015871 -2 2 C-1.34 2 -0.68 2 0 2 C0 1.34 0 0.68 0 0 Z " fill="#313131" transform="translate(543,717)"/>
<path d="M0 0 C0.99 0.66 1.98 1.32 3 2 C1.71349294 2.69710731 0.42059335 3.38242876 -0.875 4.0625 C-1.95394531 4.63677734 -1.95394531 4.63677734 -3.0546875 5.22265625 C-3.69664062 5.47917969 -4.33859375 5.73570312 -5 6 C-5.66 5.67 -6.32 5.34 -7 5 C-4.87219421 2.65941363 -2.88437779 1.29299694 0 0 Z " fill="#262626" transform="translate(283,719)"/>
<path d="M0 0 C0.66 0 1.32 0 2 0 C1.01 3.3 0.02 6.6 -1 10 C-1.66 8.68 -2.32 7.36 -3 6 C-1.625 2.75 -1.625 2.75 0 0 Z " fill="#262526" transform="translate(703,592)"/>
<path d="M0 0 C-4.455 2.97 -4.455 2.97 -9 6 C-8 2 -8 2 -6.1875 0.1875 C-4 -1 -4 -1 0 0 Z " fill="#232423" transform="translate(319,595)"/>
<path d="M0 0 C-3.19990508 2.74277578 -6.00499382 4.6302836 -10 6 C-7.82304683 0.97626191 -5.41372848 -0.29263397 0 0 Z " fill="#2B2B2B" transform="translate(689,556)"/>
<path d="M0 0 C0.66 0.33 1.32 0.66 2 1 C1.01 1.33 0.02 1.66 -1 2 C-1.33 2.66 -1.66 3.32 -2 4 C-3.64363134 4.72159424 -5.31050386 5.39351421 -7 6 C-7.66 5.34 -8.32 4.68 -9 4 C-7.54618103 3.30300448 -6.08677047 2.61766134 -4.625 1.9375 C-3.40683594 1.36322266 -3.40683594 1.36322266 -2.1640625 0.77734375 C-1.44992187 0.52082031 -0.73578125 0.26429688 0 0 Z " fill="#2A2A2A" transform="translate(436,513)"/>
<path d="M0 0 C-2.93373731 1.95582488 -5.78216298 3.56224304 -9 5 C-9.66 4.67 -10.32 4.34 -11 4 C-7.35237315 0.18657193 -5.28949249 -0.11498897 0 0 Z " fill="#2C2B2B" transform="translate(490,503)"/>
<path d="M0 0 C0.33 0 0.66 0 1 0 C1.28571429 7.42857143 1.28571429 7.42857143 -1 11 C-1.66 11 -2.32 11 -3 11 C-2.01 7.37 -1.02 3.74 0 0 Z " fill="#2B2B2A" transform="translate(249,374)"/>
<path d="M0 0 C0.66 0 1.32 0 2 0 C1.38461538 5.53846154 1.38461538 5.53846154 -0.5625 7.875 C-1.036875 8.24625 -1.51125 8.6175 -2 9 C-2.33 8.34 -2.66 7.68 -3 7 C-2.06421005 4.64018187 -1.06652192 2.30368736 0 0 Z " fill="#212121" transform="translate(598,368)"/>
<path d="M0 0 C1.72217143 2.63390925 2.00455315 3.92411417 1.8125 7.125 C1 10 1 10 -2 12 C-1 3.42857143 -1 3.42857143 0 0 Z " fill="#2B2B2B" transform="translate(761,353)"/>
<path d="M0 0 C0 0.33 0 0.66 0 1 C-3.96 1.66 -7.92 2.32 -12 3 C-12 2.01 -12 1.02 -12 0 C-7.91556885 -1.53166168 -4.20544343 -0.63081652 0 0 Z " fill="#2A2B2A" transform="translate(655,309)"/>
<path d="M0 0 C0.99 0.66 1.98 1.32 3 2 C1.71349294 2.69710731 0.42059335 3.38242876 -0.875 4.0625 C-1.95394531 4.63677734 -1.95394531 4.63677734 -3.0546875 5.22265625 C-3.69664062 5.47917969 -4.33859375 5.73570312 -5 6 C-5.66 5.67 -6.32 5.34 -7 5 C-4.87219421 2.65941363 -2.88437779 1.29299694 0 0 Z " fill="#282827" transform="translate(394,273)"/>
<path d="M0 0 C6.625 0.75 6.625 0.75 10 3 C6.30458414 3.95024979 3.69541586 3.95024979 0 3 C0 2.01 0 1.02 0 0 Z " fill="#2A2929" transform="translate(496,231)"/>
<path d="M0 0 C0 3.99904969 -1.72586967 5.80200422 -4 9 C-4.8125 7.3125 -4.8125 7.3125 -5 5 C-2.5625 2.25 -2.5625 2.25 0 0 Z " fill="#292828" transform="translate(567,669)"/>
<path d="M0 0 C0.33 0.99 0.66 1.98 1 3 C-1.64 4.98 -4.28 6.96 -7 9 C-7.66 8.67 -8.32 8.34 -9 8 C-6.03 5.36 -3.06 2.72 0 0 Z " fill="#2C2B2B" transform="translate(237,638)"/>
<path d="M0 0 C0.66 0.33 1.32 0.66 2 1 C0.875 3.4375 0.875 3.4375 -1 6 C-4.1875 6.8125 -4.1875 6.8125 -7 7 C-4.66666667 4.66666667 -2.33333333 2.33333333 0 0 Z " fill="#2B2B2B" transform="translate(257,621)"/>
<path d="M0 0 C0.66 0.33 1.32 0.66 2 1 C1.50168276 4.68754757 0.89932357 6.60490662 -2 9 C-2.33 8.34 -2.66 7.68 -3 7 C-2.06421005 4.64018187 -1.06652192 2.30368736 0 0 Z " fill="#272827" transform="translate(674,618)"/>
<path d="M0 0 C0.66 0.33 1.32 0.66 2 1 C-0.25 3.5625 -0.25 3.5625 -3 6 C-4.32 5.67 -5.64 5.34 -7 5 C-4.69 3.35 -2.38 1.7 0 0 Z " fill="#282828" transform="translate(317,577)"/>
<path d="M0 0 C0.66 0.33 1.32 0.66 2 1 C-0.25 3.5625 -0.25 3.5625 -3 6 C-4.32 5.67 -5.64 5.34 -7 5 C-4.69 3.35 -2.38 1.7 0 0 Z " fill="#2B2C2B" transform="translate(326,571)"/>
<path d="M0 0 C0.66 0.33 1.32 0.66 2 1 C-0.44939271 5.77631579 -0.44939271 5.77631579 -3 6.8125 C-5 7 -5 7 -8 7 C-5.36 4.69 -2.72 2.38 0 0 Z " fill="#383837" transform="translate(647,566)"/>
<path d="M0 0 C0.66 0 1.32 0 2 0 C1.01 3.3 0.02 6.6 -1 10 C-1.33 10 -1.66 10 -2 10 C-1.85950482 8.52031676 -1.71245174 7.04125484 -1.5625 5.5625 C-1.48128906 4.73878906 -1.40007813 3.91507813 -1.31640625 3.06640625 C-1 1 -1 1 0 0 Z " fill="#282928" transform="translate(721,546)"/>
<path d="M0 0 C3 3.75 3 3.75 3 6 C4.32 6.33 5.64 6.66 7 7 C5.1875 7.6875 5.1875 7.6875 3 8 C0.51384442 6.15840327 -0.00156904 4.99529289 -1 2 C-0.67 1.34 -0.34 0.68 0 0 Z " fill="#2F2F2F" transform="translate(405,514)"/>
<path d="M0 0 C0.5775 0.37125 1.155 0.7425 1.75 1.125 C-4.875 4.25 -4.875 4.25 -8.25 3.125 C-7.59 3.125 -6.93 3.125 -6.25 3.125 C-6.25 2.465 -6.25 1.805 -6.25 1.125 C-2.80384615 -1.09038462 -2.80384615 -1.09038462 0 0 Z " fill="#2E2E2F" transform="translate(801.25,500.875)"/>
<path d="M0 0 C0.33 0 0.66 0 1 0 C1.125 6.625 1.125 6.625 0 10 C-0.99 10.33 -1.98 10.66 -3 11 C-2.01 7.37 -1.02 3.74 0 0 Z " fill="#2C2D2D" transform="translate(722,489)"/>
<path d="M0 0 C3.59391114 1.33488128 6.75490696 2.96022723 10 5 C8.68 5.33 7.36 5.66 6 6 C6 5.34 6 4.68 6 4 C4.35 3.67 2.7 3.34 1 3 C0.67 2.01 0.34 1.02 0 0 Z " fill="#2B2B2B" transform="translate(351,464)"/>
<path d="M0 0 C1.60080151 4.00200378 0.29279692 7.04556236 -1 11 C-1.66 10.34 -2.32 9.68 -3 9 C-2.53846154 2.53846154 -2.53846154 2.53846154 0 0 Z " fill="#2D2D2D" transform="translate(766,404)"/>
<path d="M0 0 C-3.53411321 2.12046792 -6.94393835 2.53199289 -11 3 C-7.79596591 -1.80605113 -5.23274949 -1.0465499 0 0 Z " fill="#282929" transform="translate(496,349)"/>
<path d="M0 0 C-1.55500981 3.81684226 -4.03595495 6.19195732 -7 9 C-4.4 0 -4.4 0 0 0 Z " fill="#282727" transform="translate(294,343)"/>
<path d="M0 0 C3.125 0.6875 3.125 0.6875 6 2 C6.33 2.99 6.66 3.98 7 5 C3.7 4.01 0.4 3.02 -3 2 C-2.01 1.34 -1.02 0.68 0 0 Z " fill="#2B2B2B" transform="translate(498,249)"/>
<path d="M0 0 C1 2 1 2 0.3125 4.5 C-1.15567038 7.29651501 -2.09303901 7.93411431 -5 9 C-3.7508258 5.54074837 -2.32472205 2.85306797 0 0 Z " fill="#29292A" transform="translate(549,668)"/>
<path d="M0 0 C0.33 0.66 0.66 1.32 1 2 C1.66 2.33 2.32 2.66 3 3 C1.6875 5 1.6875 5 0 7 C-0.99 7 -1.98 7 -3 7 C-1.125 1.125 -1.125 1.125 0 0 Z " fill="#232322" transform="translate(594,631)"/>
<path d="M0 0 C0.33 0 0.66 0 1 0 C0.88590407 1.45922693 0.75834456 2.91740598 0.625 4.375 C0.55539062 5.18710937 0.48578125 5.99921875 0.4140625 6.8359375 C0 9 0 9 -2 11 C-1.85892253 9.54119891 -1.71197585 8.08296449 -1.5625 6.625 C-1.48128906 5.81289063 -1.40007813 5.00078125 -1.31640625 4.1640625 C-1 2 -1 2 0 0 Z " fill="#202020" transform="translate(518,622)"/>
<path d="M0 0 C0.66 0.33 1.32 0.66 2 1 C-1.32307692 5.8 -1.32307692 5.8 -4.75 6.8125 C-5.4925 6.874375 -6.235 6.93625 -7 7 C-4.66666667 4.66666667 -2.33333333 2.33333333 0 0 Z " fill="#2B2B2B" transform="translate(267,613)"/>
<path d="M0 0 C0.99 0.66 1.98 1.32 3 2 C-2.2734375 5.22265625 -2.2734375 5.22265625 -4 6 C-4.66 5.67 -5.32 5.34 -6 5 C-2.25 1.125 -2.25 1.125 0 0 Z " fill="#282727" transform="translate(383,551)"/>
<path d="M0 0 C0.66 0 1.32 0 2 0 C1.01 3.3 0.02 6.6 -1 10 C-1.33 10 -1.66 10 -2 10 C-1.85950482 8.52031676 -1.71245174 7.04125484 -1.5625 5.5625 C-1.48128906 4.73878906 -1.40007813 3.91507812 -1.31640625 3.06640625 C-1 1 -1 1 0 0 Z " fill="#2B2B2B" transform="translate(564,501)"/>
<path d="M0 0 C1 2 1 2 0.44140625 3.9453125 C0.15136719 4.66460937 -0.13867188 5.38390625 -0.4375 6.125 C-0.72496094 6.84945313 -1.01242187 7.57390625 -1.30859375 8.3203125 C-1.53675781 8.87460937 -1.76492188 9.42890625 -2 10 C-3.125 8.3125 -3.125 8.3125 -4 6 C-3.25 3.3125 -3.25 3.3125 -2 1 C-1.34 0.67 -0.68 0.34 0 0 Z " fill="#2A2929" transform="translate(606,397)"/>
<path d="M0 0 C-0.99 0.495 -0.99 0.495 -2 1 C-2 1.66 -2 2.32 -2 3 C-4.64 3.33 -7.28 3.66 -10 4 C-9.01 3.67 -8.02 3.34 -7 3 C-7 2.34 -7 1.68 -7 1 C-4.53721199 -0.231394 -2.7204945 -0.07159196 0 0 Z " fill="#282828" transform="translate(567,328)"/>
<path d="M0 0 C3.875 0.875 3.875 0.875 5 2 C5.04092937 4.33297433 5.04241723 6.66705225 5 9 C4.67 9 4.34 9 4 9 C4 7.35 4 5.7 4 4 C2.68 3.34 1.36 2.68 0 2 C0 1.34 0 0.68 0 0 Z " fill="#313131" transform="translate(789,277)"/>
<path d="M0 0 C1.32 0.66 2.64 1.32 4 2 C2.73392393 2.53229326 1.46189588 3.05044544 0.1875 3.5625 C-0.52019531 3.85253906 -1.22789062 4.14257812 -1.95703125 4.44140625 C-4 5 -4 5 -7 4 C-6.67 3.34 -6.34 2.68 -6 2 C-4.02 2 -2.04 2 0 2 C0 1.34 0 0.68 0 0 Z " fill="#2F2F2E" transform="translate(426,260)"/>
<path d="M0 0 C0.66 0 1.32 0 2 0 C1.01 2.97 0.02 5.94 -1 9 C-1.33 9 -1.66 9 -2 9 C-2.25 3.375 -2.25 3.375 0 0 Z " fill="#252525" transform="translate(551,694)"/>
<path d="M0 0 C0.66 0.33 1.32 0.66 2 1 C1.01 3.97 0.02 6.94 -1 10 C-1.33 10 -1.66 10 -2 10 C-2.17942163 6.05272412 -2.09350689 3.4019487 0 0 Z " fill="#262626" transform="translate(210,690)"/>
<path d="M0 0 C0.33 0.99 0.66 1.98 1 3 C-0.9375 6.1875 -0.9375 6.1875 -3 9 C-3.75 7.3125 -3.75 7.3125 -4 5 C-2.0625 2.25 -2.0625 2.25 0 0 Z " fill="#20201F" transform="translate(572,660)"/>
<path d="M0 0 C0.33 0 0.66 0 1 0 C0.25 7.625 0.25 7.625 -2 11 C-2.95465783 8.83032311 -3.14401212 7.43671207 -2.3984375 5.17578125 C-1.64129615 3.4315257 -0.82390802 1.71372869 0 0 Z " fill="#212121" transform="translate(541,561)"/>
<path d="M0 0 C0.99 0.66 1.98 1.32 3 2 C-3.75 6 -3.75 6 -6 6 C-5.67 5.01 -5.34 4.02 -5 3 C-3.68 3 -2.36 3 -1 3 C-0.67 2.01 -0.34 1.02 0 0 Z " fill="#2C2C2C" transform="translate(374,556)"/>
<path d="M0 0 C-4.455 1.485 -4.455 1.485 -9 3 C-8 0 -8 0 -6.1875 -1.3125 C-4 -2 -4 -2 0 0 Z " fill="#2B2B2B" transform="translate(774,514)"/>
<path d="M0 0 C2.46800047 1.15173355 4.04783565 2.04783565 6 4 C5.67 4.99 5.34 5.98 5 7 C3.02 5.35 1.04 3.7 -1 2 C-0.67 1.34 -0.34 0.68 0 0 Z " fill="#202020" transform="translate(369,496)"/>
<path d="M0 0 C4.31392226 0.4793247 6.16569547 1.7457985 9 5 C6.75 5.3125 6.75 5.3125 4 5 C1.6875 2.5 1.6875 2.5 0 0 Z " fill="#1C1C1D" transform="translate(359,470)"/>
<path d="M0 0 C-3.44450737 2.29633824 -5.93812283 2.54016485 -10 3 C-9.67 2.01 -9.34 1.02 -9 0 C-5.8033 -1.37001429 -3.30096158 -0.8252404 0 0 Z " fill="#30302F" transform="translate(557,332)"/>
<path d="M0 0 C-3.26545761 1.88391785 -6.28111761 2.49287967 -10 3 C-9.67 2.01 -9.34 1.02 -9 0 C-5.52176885 -1.15941038 -3.54104422 -0.70820884 0 0 Z " fill="#373838" transform="translate(580,326)"/>
<path d="M0 0 C0.66 0 1.32 0 2 0 C0.55746343 3.36591866 -1.33264727 5.51047079 -4 8 C-3.40312566 4.65750371 -2.26396123 2.53563658 0 0 Z " fill="#232423" transform="translate(520,307)"/>
<path d="M0 0 C0.66 0.33 1.32 0.66 2 1 C0.25 6.75 0.25 6.75 -2 9 C-1.125 2.25 -1.125 2.25 0 0 Z " fill="#252424" transform="translate(670,664)"/>
<path d="M0 0 C0.66 0 1.32 0 2 0 C1.45773019 3.79588866 -0.20127563 5.47211993 -3 8 C-2.45276317 4.62537285 -1.9451 2.91765 0 0 Z " fill="#20201F" transform="translate(375,641)"/>
<path d="M0 0 C0.66 0.33 1.32 0.66 2 1 C1.67 1.99 1.34 2.98 1 4 C-2.5625 5.1875 -2.5625 5.1875 -6 6 C-4 4 -2 2 0 0 Z " fill="#2C2C2B" transform="translate(280,603)"/>
<path d="M0 0 C1.32 0.33 2.64 0.66 4 1 C3.67 1.99 3.34 2.98 3 4 C3 3.34 3 2.68 3 2 C2.21625 2.495 1.4325 2.99 0.625 3.5 C-2 5 -2 5 -4 5 C-4 4.34 -4 3.68 -4 3 C-3.01 3 -2.02 3 -1 3 C-0.67 2.01 -0.34 1.02 0 0 Z " fill="#353434" transform="translate(699,547)"/>
<path d="M0 0 C1.32 0.66 2.64 1.32 4 2 C2.03533587 3.06775224 0.03144641 4.06553465 -2 5 C-2.66 4.67 -3.32 4.34 -4 4 C-2.68 2.68 -1.36 1.36 0 0 Z " fill="#2B2A2A" transform="translate(392,546)"/>
<path d="M0 0 C0.66 0 1.32 0 2 0 C1.34 2.97 0.68 5.94 0 9 C-2 5 -2 5 -1.125 2.25 C-0.75375 1.5075 -0.3825 0.765 0 0 Z " fill="#272727" transform="translate(742,482)"/>
<path d="M0 0 C0.33 0.66 0.66 1.32 1 2 C0.06421005 4.35981813 -0.93347808 6.69631264 -2 9 C-2.33 9 -2.66 9 -3 9 C-3.36923077 3.46153846 -3.36923077 3.46153846 -1.5 1.125 C-1.005 0.75375 -0.51 0.3825 0 0 Z " fill="#29292A" transform="translate(615,375)"/>
<path d="M0 0 C0 3 0 3 -2.5 5.6875 C-3.325 6.450625 -4.15 7.21375 -5 8 C-4.64950425 4.75791433 -4.43778819 3.38472296 -1.9375 1.1875 C-1.298125 0.795625 -0.65875 0.40375 0 0 Z " fill="#2B2A2A" transform="translate(280,358)"/>
<path d="M0 0 C0.33 0.66 0.66 1.32 1 2 C-0.25 4.5625 -0.25 4.5625 -2 7 C-2.99 7.33 -3.98 7.66 -5 8 C-3.8141763 4.62496331 -2.72426311 2.35277269 0 0 Z " fill="#262626" transform="translate(262,354)"/>
<path d="M0 0 C1.32 0.33 2.64 0.66 4 1 C1.69 2.65 -0.62 4.3 -3 6 C-2 2 -2 2 0 0 Z " fill="#252525" transform="translate(319,319)"/>
<path d="M0 0 C0.66 0.66 1.32 1.32 2 2 C1.01 2.495 1.01 2.495 0 3 C0 2.01 0 1.02 0 0 Z " fill="#3F3D3D" transform="translate(529,773)"/>
<path d="M0 0 C1 4 1 4 1 4 Z " fill="#3F3E3D" transform="translate(392,562)"/>
<path d="" fill="#413F3F" transform="translate(0,0)"/>
<path d="" fill="#414141" transform="translate(0,0)"/>
<path d="M0 0 C0.66 0 1.32 0 2 0 C1.67 0.66 1.34 1.32 1 2 C0.67 1.34 0.34 0.68 0 0 Z " fill="#3F3E3F" transform="translate(296,690)"/>
<path d="M0 0 C3 1 3 1 3 1 Z " fill="#3E403E" transform="translate(296,688)"/>
<path d="" fill="#424140" transform="translate(0,0)"/>
<path d="M0 0 C0.66 0 1.32 0 2 0 C1.67 0.66 1.34 1.32 1 2 C0.67 1.34 0.34 0.68 0 0 Z " fill="#3F3E3E" transform="translate(376,507)"/>
<path d="M0 0 C3 1 3 1 3 1 Z " fill="#404040" transform="translate(755,295)"/>
<path d="" fill="#3E3D3D" transform="translate(0,0)"/>
<path d="" fill="#434344" transform="translate(0,0)"/>
<path d="M0 0 C2 1 2 1 2 1 Z " fill="#414040" transform="translate(560,649)"/>
<path d="M0 0 C2 1 2 1 2 1 Z " fill="#403F40" transform="translate(568,632)"/>
<path d="" fill="#424141" transform="translate(0,0)"/>
<path d="" fill="#3C3C3B" transform="translate(0,0)"/>
<path d="" fill="#3E3C3C" transform="translate(0,0)"/>
<path d="" fill="#444343" transform="translate(0,0)"/>
<path d="" fill="#40413F" transform="translate(0,0)"/>
<path d="M0 0 C2 1 2 1 2 1 Z " fill="#3E3E3E" transform="translate(689,536)"/>
<path d="M0 0 C2 1 2 1 2 1 Z " fill="#3F3E3E" transform="translate(384,518)"/>
<path d="M0 0 C2 1 2 1 2 1 Z " fill="#4E4E4D" transform="translate(488,488)"/>
<path d="M0 0 C2 1 2 1 2 1 Z " fill="#434140" transform="translate(381,480)"/>
<path d="M0 0 C2 1 2 1 2 1 Z " fill="#3F3F3D" transform="translate(329,475)"/>
<path d="M0 0 C2 1 2 1 2 1 Z " fill="#383938" transform="translate(340,456)"/>
<path d="M0 0 C2 1 2 1 2 1 Z " fill="#3C3C3A" transform="translate(281,451)"/>
<path d="M0 0 C2 1 2 1 2 1 Z " fill="#434243" transform="translate(560,448)"/>
<path d="" fill="#3D3D3E" transform="translate(0,0)"/>
<path d="M0 0 C2 1 2 1 2 1 Z " fill="#3F3D3B" transform="translate(517,322)"/>
<path d="" fill="#3D3C3B" transform="translate(0,0)"/>
<path d="M0 0 C2 1 2 1 2 1 Z " fill="#404040" transform="translate(704,280)"/>
<path d="" fill="#403F3E" transform="translate(0,0)"/>
<path d="M0 0 C2 1 2 1 2 1 Z " fill="#3F3E3D" transform="translate(428,263)"/>
<path d="M0 0 C2 1 2 1 2 1 Z " fill="#434341" transform="translate(484,228)"/>
<path d="" fill="#2D2E2D" transform="translate(0,0)"/>
<path d="" fill="#373737" transform="translate(0,0)"/>
<path d="" fill="#454341" transform="translate(0,0)"/>
<path d="" fill="#404040" transform="translate(0,0)"/>
<path d="" fill="#42413E" transform="translate(0,0)"/>
<path d="" fill="#413F3D" transform="translate(0,0)"/>
<path d="" fill="#3D3C3C" transform="translate(0,0)"/>
<path d="" fill="#3D3F3E" transform="translate(0,0)"/>
<path d="" fill="#3F413F" transform="translate(0,0)"/>
<path d="" fill="#3F3F3F" transform="translate(0,0)"/>
<path d="" fill="#3F3E3F" transform="translate(0,0)"/>
<path d="" fill="#3F3D3F" transform="translate(0,0)"/>
<path d="" fill="#40423F" transform="translate(0,0)"/>
<path d="" fill="#403E3C" transform="translate(0,0)"/>
<path d="" fill="#414041" transform="translate(0,0)"/>
<path d="" fill="#404140" transform="translate(0,0)"/>
<path d="" fill="#414140" transform="translate(0,0)"/>
<path d="" fill="#404040" transform="translate(0,0)"/>
<path d="" fill="#3E3C3D" transform="translate(0,0)"/>
<path d="" fill="#3E3F3E" transform="translate(0,0)"/>
<path d="" fill="#3C3B3A" transform="translate(0,0)"/>
<path d="" fill="#3F403E" transform="translate(0,0)"/>
<path d="" fill="#3F3F40" transform="translate(0,0)"/>
<path d="" fill="#3C3B3D" transform="translate(0,0)"/>
<path d="" fill="#464645" transform="translate(0,0)"/>
<path d="" fill="#444344" transform="translate(0,0)"/>
<path d="" fill="#42413F" transform="translate(0,0)"/>
<path d="" fill="#403F3F" transform="translate(0,0)"/>
<path d="" fill="#403E3E" transform="translate(0,0)"/>
<path d="" fill="#424040" transform="translate(0,0)"/>
<path d="" fill="#3E3D3D" transform="translate(0,0)"/>
<path d="" fill="#444143" transform="translate(0,0)"/>
<path d="" fill="#3F3F3F" transform="translate(0,0)"/>
<path d="" fill="#3C3D3D" transform="translate(0,0)"/>
<path d="" fill="#414040" transform="translate(0,0)"/>
<path d="" fill="#3B3A39" transform="translate(0,0)"/>
<path d="" fill="#3F3D3F" transform="translate(0,0)"/>
<path d="" fill="#40403E" transform="translate(0,0)"/>
<path d="" fill="#3F3F3C" transform="translate(0,0)"/>
<path d="" fill="#3D3D3D" transform="translate(0,0)"/>
<path d="" fill="#464543" transform="translate(0,0)"/>
<path d="" fill="#454445" transform="translate(0,0)"/>
<path d="" fill="#3E3E3D" transform="translate(0,0)"/>
<path d="" fill="#454343" transform="translate(0,0)"/>
<path d="" fill="#3D3D3D" transform="translate(0,0)"/>
<path d="" fill="#424541" transform="translate(0,0)"/>
<path d="" fill="#434345" transform="translate(0,0)"/>
<path d="" fill="#413F3F" transform="translate(0,0)"/>
<path d="" fill="#454243" transform="translate(0,0)"/>
<path d="" fill="#3E3D3E" transform="translate(0,0)"/>
<path d="" fill="#454543" transform="translate(0,0)"/>
<path d="" fill="#3F4142" transform="translate(0,0)"/>
<path d="" fill="#434243" transform="translate(0,0)"/>
<path d="" fill="#42413F" transform="translate(0,0)"/>
<path d="" fill="#403F40" transform="translate(0,0)"/>
<path d="" fill="#3D3D3D" transform="translate(0,0)"/>
<path d="" fill="#3E3B3D" transform="translate(0,0)"/>
<path d="" fill="#3F3F3F" transform="translate(0,0)"/>
<path d="" fill="#424140" transform="translate(0,0)"/>
<path d="" fill="#40403E" transform="translate(0,0)"/>
<path d="" fill="#3E3D3D" transform="translate(0,0)"/>
<path d="" fill="#3E3F3D" transform="translate(0,0)"/>
<path d="" fill="#434242" transform="translate(0,0)"/>
<path d="" fill="#3C3E3D" transform="translate(0,0)"/>
<path d="" fill="#3D3F3B" transform="translate(0,0)"/>
<path d="" fill="#414041" transform="translate(0,0)"/>
<path d="" fill="#424441" transform="translate(0,0)"/>
<path d="" fill="#3F4040" transform="translate(0,0)"/>
<path d="" fill="#424243" transform="translate(0,0)"/>
<path d="" fill="#3A3B38" transform="translate(0,0)"/>
<path d="" fill="#404140" transform="translate(0,0)"/>
<path d="" fill="#444345" transform="translate(0,0)"/>
<path d="" fill="#424241" transform="translate(0,0)"/>
<path d="" fill="#41413F" transform="translate(0,0)"/>
<path d="" fill="#434340" transform="translate(0,0)"/>
<path d="" fill="#424341" transform="translate(0,0)"/>
<path d="" fill="#444444" transform="translate(0,0)"/>
<path d="" fill="#444341" transform="translate(0,0)"/>
<path d="" fill="#434344" transform="translate(0,0)"/>
<path d="" fill="#444343" transform="translate(0,0)"/>
<path d="" fill="#464445" transform="translate(0,0)"/>
<path d="" fill="#424040" transform="translate(0,0)"/>
<path d="" fill="#434441" transform="translate(0,0)"/>
<path d="" fill="#3A393A" transform="translate(0,0)"/>
<path d="" fill="#423F40" transform="translate(0,0)"/>
<path d="" fill="#3A3939" transform="translate(0,0)"/>
<path d="" fill="#3D3D3C" transform="translate(0,0)"/>
<path d="" fill="#444242" transform="translate(0,0)"/>
<path d="" fill="#404141" transform="translate(0,0)"/>
<path d="" fill="#403F3E" transform="translate(0,0)"/>
<path d="" fill="#454343" transform="translate(0,0)"/>
<path d="" fill="#3C3C3B" transform="translate(0,0)"/>
<path d="" fill="#3F403E" transform="translate(0,0)"/>
<path d="" fill="#40413D" transform="translate(0,0)"/>
<path d="" fill="#434341" transform="translate(0,0)"/>
<path d="" fill="#434042" transform="translate(0,0)"/>
<path d="" fill="#373639" transform="translate(0,0)"/>
<path d="" fill="#3A3B38" transform="translate(0,0)"/>
<path d="" fill="#41413C" transform="translate(0,0)"/>
<path d="" fill="#444543" transform="translate(0,0)"/>
<path d="" fill="#3E3B3C" transform="translate(0,0)"/>
<path d="" fill="#3E3C3E" transform="translate(0,0)"/>
<path d="" fill="#413F3F" transform="translate(0,0)"/>
<path d="" fill="#413F3F" transform="translate(0,0)"/>
<path d="" fill="#424142" transform="translate(0,0)"/>
<path d="" fill="#3A3B39" transform="translate(0,0)"/>
<path d="" fill="#454242" transform="translate(0,0)"/>
<path d="" fill="#474542" transform="translate(0,0)"/>
<path d="" fill="#3C3D3C" transform="translate(0,0)"/>
<path d="" fill="#444541" transform="translate(0,0)"/>
<path d="" fill="#3E3E3D" transform="translate(0,0)"/>
<path d="" fill="#454344" transform="translate(0,0)"/>
<path d="" fill="#3F3C3E" transform="translate(0,0)"/>
<path d="" fill="#414443" transform="translate(0,0)"/>
<path d="" fill="#403E3E" transform="translate(0,0)"/>
<path d="" fill="#414040" transform="translate(0,0)"/>
<path d="" fill="#434442" transform="translate(0,0)"/>
<path d="" fill="#434341" transform="translate(0,0)"/>
<path d="" fill="#464444" transform="translate(0,0)"/>
<path d="" fill="#444243" transform="translate(0,0)"/>
<path d="" fill="#403F3F" transform="translate(0,0)"/>
<path d="" fill="#434141" transform="translate(0,0)"/>
<path d="" fill="#434542" transform="translate(0,0)"/>
<path d="" fill="#3C3A39" transform="translate(0,0)"/>
<path d="" fill="#3F3E3F" transform="translate(0,0)"/>
<path d="" fill="#413F40" transform="translate(0,0)"/>
<path d="" fill="#40403D" transform="translate(0,0)"/>
<path d="" fill="#3E3F3F" transform="translate(0,0)"/>
<path d="" fill="#3F403F" transform="translate(0,0)"/>
<path d="" fill="#3D3D3C" transform="translate(0,0)"/>
<path d="" fill="#3E3E3D" transform="translate(0,0)"/>
<path d="" fill="#3F3E3E" transform="translate(0,0)"/>
<path d="" fill="#494949" transform="translate(0,0)"/>
<path d="" fill="#403F3E" transform="translate(0,0)"/>
<path d="" fill="#424242" transform="translate(0,0)"/>
<path d="" fill="#423F3F" transform="translate(0,0)"/>
<path d="" fill="#3F3A39" transform="translate(0,0)"/>
<path d="" fill="#3D3D3B" transform="translate(0,0)"/>
<path d="" fill="#403E3C" transform="translate(0,0)"/>
<path d="" fill="#3B3A3B" transform="translate(0,0)"/>
<path d="" fill="#3E3D3C" transform="translate(0,0)"/>
<path d="" fill="#3F3D3B" transform="translate(0,0)"/>
<path d="" fill="#40413F" transform="translate(0,0)"/>
<path d="" fill="#403E3E" transform="translate(0,0)"/>
<path d="" fill="#424241" transform="translate(0,0)"/>
<path d="" fill="#454443" transform="translate(0,0)"/>
<path d="" fill="#403F3D" transform="translate(0,0)"/>
<path d="" fill="#434243" transform="translate(0,0)"/>
<path d="" fill="#40403F" transform="translate(0,0)"/>
<path d="" fill="#434341" transform="translate(0,0)"/>
<path d="" fill="#434443" transform="translate(0,0)"/>
<path d="" fill="#424141" transform="translate(0,0)"/>
<path d="" fill="#434242" transform="translate(0,0)"/>
<path d="" fill="#444645" transform="translate(0,0)"/>
<path d="" fill="#393937" transform="translate(0,0)"/>
<path d="" fill="#3E3C3C" transform="translate(0,0)"/>
<path d="" fill="#3E3E3C" transform="translate(0,0)"/>
<path d="" fill="#464545" transform="translate(0,0)"/>
<path d="" fill="#444545" transform="translate(0,0)"/>
<path d="" fill="#3C3A3D" transform="translate(0,0)"/>
<path d="" fill="#41403D" transform="translate(0,0)"/>
<path d="" fill="#3F3F3C" transform="translate(0,0)"/>
<path d="" fill="#41423F" transform="translate(0,0)"/>
<path d="" fill="#3E3D3D" transform="translate(0,0)"/>
<path d="" fill="#40403E" transform="translate(0,0)"/>
<path d="" fill="#434141" transform="translate(0,0)"/>
<path d="" fill="#3C3C3D" transform="translate(0,0)"/>
<path d="" fill="#3F3E3F" transform="translate(0,0)"/>
<path d="" fill="#3F3F3D" transform="translate(0,0)"/>
<path d="" fill="#3F3E3D" transform="translate(0,0)"/>
<path d="" fill="#41433F" transform="translate(0,0)"/>
<path d="" fill="#3E403F" transform="translate(0,0)"/>
<path d="" fill="#3F3E40" transform="translate(0,0)"/>
<path d="" fill="#464344" transform="translate(0,0)"/>
<path d="" fill="#42423F" transform="translate(0,0)"/>
<path d="" fill="#3E3E3C" transform="translate(0,0)"/>
<path d="" fill="#41403F" transform="translate(0,0)"/>
<path d="" fill="#474748" transform="translate(0,0)"/>
<path d="" fill="#444343" transform="translate(0,0)"/>
<path d="" fill="#3E3D3F" transform="translate(0,0)"/>
<path d="" fill="#3F3F3E" transform="translate(0,0)"/>
<path d="" fill="#413F41" transform="translate(0,0)"/>
<path d="" fill="#3D3D3D" transform="translate(0,0)"/>
<path d="" fill="#42423F" transform="translate(0,0)"/>
<path d="" fill="#3E3D3C" transform="translate(0,0)"/>
<path d="" fill="#444341" transform="translate(0,0)"/>
<path d="" fill="#403F3B" transform="translate(0,0)"/>
<path d="" fill="#434042" transform="translate(0,0)"/>
<path d="" fill="#42413F" transform="translate(0,0)"/>
<path d="" fill="#3F3F3F" transform="translate(0,0)"/>
<path d="" fill="#414140" transform="translate(0,0)"/>
<path d="" fill="#3F3F3E" transform="translate(0,0)"/>
<path d="" fill="#413F41" transform="translate(0,0)"/>
<path d="" fill="#413D3D" transform="translate(0,0)"/>
<path d="" fill="#3C3D3D" transform="translate(0,0)"/>
<path d="" fill="#403F3F" transform="translate(0,0)"/>
<path d="" fill="#424141" transform="translate(0,0)"/>
<path d="" fill="#403D3D" transform="translate(0,0)"/>
<path d="" fill="#444442" transform="translate(0,0)"/>
<path d="" fill="#3A3C3B" transform="translate(0,0)"/>
<path d="" fill="#403E3E" transform="translate(0,0)"/>
<path d="" fill="#42413F" transform="translate(0,0)"/>
<path d="" fill="#413F3E" transform="translate(0,0)"/>
<path d="" fill="#424241" transform="translate(0,0)"/>
<path d="" fill="#464343" transform="translate(0,0)"/>
<path d="" fill="#474645" transform="translate(0,0)"/>
<path d="" fill="#403F3D" transform="translate(0,0)"/>
<path d="" fill="#3F4141" transform="translate(0,0)"/>
<path d="" fill="#3E3C3D" transform="translate(0,0)"/>
<path d="" fill="#3E3C3D" transform="translate(0,0)"/>
<path d="" fill="#403E3C" transform="translate(0,0)"/>
<path d="" fill="#40413C" transform="translate(0,0)"/>
<path d="" fill="#42413F" transform="translate(0,0)"/>
<path d="" fill="#3F403E" transform="translate(0,0)"/>
<path d="" fill="#3E3D3B" transform="translate(0,0)"/>
<path d="" fill="#444443" transform="translate(0,0)"/>
<path d="" fill="#40403E" transform="translate(0,0)"/>
<path d="" fill="#403E3D" transform="translate(0,0)"/>
<path d="" fill="#3E3D3D" transform="translate(0,0)"/>
<path d="" fill="#3F3F3F" transform="translate(0,0)"/>
<path d="" fill="#454542" transform="translate(0,0)"/>
<path d="" fill="#444541" transform="translate(0,0)"/>
<path d="" fill="#3E423F" transform="translate(0,0)"/>
<path d="" fill="#434242" transform="translate(0,0)"/>
<path d="" fill="#464747" transform="translate(0,0)"/>
<path d="" fill="#403E3D" transform="translate(0,0)"/>
<path d="" fill="#434243" transform="translate(0,0)"/>
<path d="" fill="#444342" transform="translate(0,0)"/>
<path d="" fill="#403E3E" transform="translate(0,0)"/>
<path d="" fill="#434442" transform="translate(0,0)"/>
<path d="" fill="#403F41" transform="translate(0,0)"/>
<path d="" fill="#42403E" transform="translate(0,0)"/>
<path d="" fill="#444242" transform="translate(0,0)"/>
<path d="" fill="#444343" transform="translate(0,0)"/>
<path d="" fill="#494A47" transform="translate(0,0)"/>
<path d="" fill="#3A3A38" transform="translate(0,0)"/>
<path d="" fill="#3F3E3D" transform="translate(0,0)"/>
<path d="" fill="#403E3E" transform="translate(0,0)"/>
<path d="" fill="#43413E" transform="translate(0,0)"/>
<path d="" fill="#403F3D" transform="translate(0,0)"/>
<path d="" fill="#414240" transform="translate(0,0)"/>
<path d="" fill="#40403F" transform="translate(0,0)"/>
<path d="" fill="#3E3D3C" transform="translate(0,0)"/>
<path d="" fill="#474543" transform="translate(0,0)"/>
<path d="" fill="#464647" transform="translate(0,0)"/>
</svg>
