<svg xmlns="http://www.w3.org/2000/svg" width="1024" height="1024"><path d="M515.723 238.254c9.634 7.387 16.173 18.299 18.03 30.324 1.804 17.747-5.051 31.684-15.663 45.594-2.668 2.333-4.588 2.652-8.09 2.828-1.875-1.437-1.875-1.437-3-3 1.033-3.443 2.258-6.584 3.938-9.75 5.468-10.936 7.307-23.5 4.23-35.492A58 58 0 0 0 512 262l-1.027-2.195c-1.297-2.407-2.47-2.723-4.973-3.805a375 375 0 0 1-5.219-3.098C481.64 243.206 448.28 256.117 430 262c-7.106 2.41-14.072 5.122-21 8l-2.203.903C385.214 279.833 364.346 290.921 345 304l-2.192 1.475c-13.95 9.453-27.084 19.87-39.433 31.337-2.081 1.918-4.208 3.745-6.375 5.563-8.229 7.225-15.09 15.43-21.437 24.313l-1.503 2.085c-6.86 9.835-11.241 20.567-9.6 32.711 2.632 12.276 9.5 19.5 19.54 26.516 7.388 4.595 14.965 8.668 23 12l2 1 2.887 1.426C388.11 480.193 388.11 480.193 406 514l1.09 3.336L408 520c2.032.969 2.032.969 4 1l-2 2c4.029 0 5.186-.38 8.586-2.203 8.551-4.446 17.427-8.167 26.267-11.997q4.537-1.968 9.068-3.951 6.688-2.923 13.39-5.81 2.672-1.156 5.34-2.325a1061 1061 0 0 1 7.599-3.284l2.27-1.006c5.203-2.204 9.84-3.016 15.48-3.424 1.688 2.688 1.688 2.688 3 6-1.867 4.34-4.018 5.912-8.258 7.805l-3.284 1.494-3.583 1.576q-1.87.843-3.737 1.689-3.983 1.8-7.976 3.579c-6.306 2.81-12.589 5.67-18.873 8.527q-3.142 1.427-6.283 2.85c-11.75 5.327-23.403 10.84-35.006 16.48l.07 2.43c.573 36.086-12.047 69.362-33.845 97.96a384 384 0 0 0-3.65 4.9C363.197 662.286 346.79 679.395 329 693a3087 3087 0 0 0-3.922 3.11c-8.973 7.067-18.073 13.382-28.078 18.89l-2.439 1.352c-23.817 13.108-53.62 26.183-81.514 19.894-5.799-1.72-10.98-3.947-16.047-7.246v-2h-2c-1.254-1.61-1.254-1.61-2.562-3.75l-1.317-2.11c-4.06-7.75-2.81-17.723-.496-25.827 7.934-23.004 29.269-42.79 47.375-58.313l3.129-2.723a525 525 0 0 1 22.958-18.79c2.04-1.586 4.067-3.19 6.093-4.796C281.158 602.016 292.432 593.87 304 586l3.196-2.175c13.501-9.167 27.103-18.092 41.21-26.31a1376 1376 0 0 0 8.598-5.077c9.007-5.33 18.011-10.622 27.371-15.313l1.981-.993C390.727 534 390.727 534 393 534c-3.155-10.264-3.155-10.264-9-19l-1.5-2.5c-13.042-19.492-38.146-31.384-58.437-41.687l-2.929-1.499-2.724-1.357-2.433-1.22L314 466l-2 1v-3l-3.625-1.062c-5.177-1.693-9.89-4.12-14.676-6.688-1.538-.807-3.116-1.535-4.699-2.25l-2 1v-3l-2.176-.805c-15.679-6.636-31.288-20.16-37.86-36.11-1.942-6.213-3.194-12.622-3.964-19.085l1-1c.277-1.746.52-3.497.75-5.25 2.905-17.68 12.734-31.502 24.25-44.75l2.11-2.445c8.685-9.858 17.868-19.235 28.175-27.399 2.795-2.22 5.501-4.525 8.215-6.844 19.892-16.538 41.664-30.225 64.5-42.312l2.484-1.319c36.059-18.978 101.864-52.017 141.239-26.427M388.309 550.457l-2.834 1.605-3.038 1.75-3.144 1.8c-16.625 9.557-32.672 19.81-48.562 30.544q-3.534 2.384-7.079 4.75c-9.457 6.362-18.505 13.22-27.535 20.172a677 677 0 0 1-11.521 8.656c-8.031 5.924-15.596 12.274-23.055 18.9-1.896 1.68-3.812 3.335-5.728 4.991C242.967 654.913 230.492 666.433 220 680l-2.195 2.82c-5.938 7.866-11.268 15.94-10.805 26.18 1.284 4.08 2.254 5.53 5.875 7.813 18.013 6.845 40.237-.416 57.208-7.708 4.748-2.167 9.35-4.583 13.917-7.105l2.154-1.189c9.499-5.302 18.326-11.03 26.846-17.811l2.605-2.023c5.22-4.095 10.187-8.41 15.07-12.899C333 666 333 666 335.794 663.86L338 662v-2l3-1c1.546-1.487 1.546-1.487 3.063-3.375 2.759-3.272 5.616-6.396 8.562-9.5C375.858 620.498 394.301 587.113 396 552l-1-1 1-3c-3.462 0-4.715.762-7.691 2.457" fill="#161615"/><path d="M776 341c3.375 2.531 4.784 4.188 5.875 8.285.627 6.596-1.777 12.84-3.625 19.09q-.664 2.308-1.326 4.618a2816 2816 0 0 1-3.101 10.714c-1.88 6.47-3.717 12.954-5.554 19.437-7.934 27.998-16.063 55.919-24.832 83.669l-1.106 3.504q-1.537 4.853-3.085 9.703l-.913 2.865c-1.316 4.099-2.648 8.149-4.333 12.115l1.812-.908c15.317-7.625 30.84-14.662 46.563-21.404l2.627-1.132c17.726-7.62 35.58-14.78 54.06-20.368l3.6-1.116c20.052-6.148 20.052-6.148 28.775-6.947l2.872-.305c3.579.24 6.15 1.639 8.691 4.18.375 2.813.375 2.813 0 6-4.225 4.496-9.366 5.487-15.125 7-37.745 10.501-74.25 25.1-109.946 41.136a1630 1630 0 0 1-5.812 2.588 1840 1840 0 0 0-10.93 4.901l-3.307 1.469-3.025 1.383-2.636 1.19c-4.983 2.994-6.394 7.899-8.336 13.13l-.889 2.342q-.947 2.499-1.887 5c-1.67 4.442-3.366 8.874-5.06 13.306l-1.037 2.717c-27.494 71.896-61.536 160.83-140.131 213.654-9.755 4.01-18.534 5.908-28.652 2.153C536.107 780.565 529.11 773.257 525 763c-7.784-22.534-1.391-48.751 8.648-69.559C544.217 672.382 558.411 653.573 574 636l3.688-4.25L581 628l1.754-2.035c5.49-6.263 11.32-12.178 17.183-18.09l2.587-2.626 2.44-2.444 2.208-2.22C609 599 609 599 611 599v-2h2v-2c1.258-1.305 1.258-1.305 3.125-2.875l2.227-1.89L621 588q1.544-1.334 3.086-2.672A1211 1211 0 0 1 635 576l1.892-1.604C647.438 565.503 658.468 557.563 670 550l2.372-1.56c2.348-1.533 4.706-3.05 7.066-4.565l2.353-1.553c4.042-2.602 7.83-4.644 12.393-6.181 7.33-2.68 12.839-5.57 16.73-12.598 4.193-9.313 6.822-19.277 9.548-29.093 1.49-5.345 3.13-10.635 4.808-15.923 7.145-22.643 13.617-45.483 20.043-68.34l.589-2.095c3.774-13.422 7.543-26.844 11.067-40.334l.637-2.422c.913-3.468 1.81-6.938 2.67-10.42C762.954 344.62 762.954 344.62 768 341c3.42-1.14 4.617-1.128 8 0m-80.953 210.93-3.045 1.895-3.252 2.05-3.314 2.083c-7.434 4.704-14.71 9.525-21.757 14.791a613 613 0 0 1-5.55 4.071c-18.434 13.505-35.071 29.082-51.254 45.18l-1.828 1.814c-7.269 6.265-7.269 6.265-11.047 14.186h-2c-2.731 2.894-5.13 6.07-7.586 9.199a668 668 0 0 1-2.914 3.684C566.249 670.057 552.9 690.666 545 714l-1.191 3.367c-4.063 12.937-5.826 29.96-.079 42.633 2.89 4.553 6.963 7.766 12.27 9 14.32.227 26.443-9.792 36.281-19.176A350 350 0 0 0 598 744l2.414-2.41c28.72-28.764 48.114-66.228 65.236-102.717q1.265-2.692 2.543-5.379c6.38-13.407 11.988-27.11 17.557-40.869l1.104-2.725c8.372-20.171 8.372-20.171 15.146-40.9-2.916 0-4.487 1.392-6.953 2.93" fill="#151615"/><path d="M771.855 274.867c2.799-.113 5.595-.188 8.395-.242l2.478-.08c3.909-.01 5.85.202 9.28 2.26C794 279 794 279 794.625 282.5c-.625 3.5-.625 3.5-2.587 5.621-4.043 2.5-7.597 2.91-12.265 3.442l-2.79.357A910 910 0 0 1 768 293l-5.948.71q-4.667.555-9.336 1.101c-25.287 2.956-50.342 6.613-75.404 11.064l-2.11.375c-8.74 1.554-17.478 3.114-26.202 4.75l-2.71.356c-2.709.487-2.709.487-4.403 3.964a199 199 0 0 0-2.2 4.805l-1.273 2.78c-13.303 29.525-24.792 59.922-36.782 89.993a8826 8826 0 0 1-7.898 19.735c-17.04 42.44-33.38 85.129-49.45 127.945q-1.765 4.706-3.534 9.412L535 585.312l-.883 2.353c-3.08 8.208-6.15 16.419-9.2 24.638q-2.08 5.594-4.164 11.186-.99 2.667-1.977 5.335-1.359 3.674-2.73 7.344l-.802 2.188c-3.467 9.248-3.467 9.248-6.994 12.019-3.475.965-5.794.612-9.25-.375-2.5-2.5-2.5-2.5-4-6 .214-8.355 3.112-15.796 5.938-23.562l1.593-4.447c6.451-17.942 13.204-35.776 19.936-53.614q4.064-10.78 8.092-21.572A6002 6002 0 0 1 561 461l1.118-2.868A18309 18309 0 0 1 579 415l1.045-2.663c9.912-25.246 19.983-50.416 30.393-75.462.4-.966.802-1.932 1.216-2.927A661 661 0 0 1 619 317c-21.316 5.375-42.61 10.82-63.812 16.625l-2.62.717a9062 9062 0 0 0-30.471 8.404 14042 14042 0 0 1-16.957 4.692q-6.264 1.73-12.523 3.478-2.976.827-5.953 1.649-3.66 1.01-7.315 2.036c-17.344 4.76-17.344 4.76-25.349 1.399-2.225-2.081-2.855-3.45-3.625-6.375.801-3.365 2.393-5.05 5.081-7.164 3.119-1.791 6.315-2.824 9.743-3.832l2.135-.646c2.22-.67 4.442-1.327 6.666-1.983l4.032-1.204c4.42-1.311 8.849-2.589 13.28-3.858l2.563-.735c19.125-5.465 38.337-10.608 57.554-15.737q3.598-.96 7.195-1.924c20.84-5.57 41.721-10.963 62.667-16.126 3.047-.752 6.09-1.515 9.128-2.3 5.41-1.397 10.618-2.528 16.175-3.1a261 261 0 0 0 17.25-2.532l7.142-1.284c33.253-5.95 67.1-10.762 100.87-12.333" fill="#161615"/></svg>